<svg width="22" height="24" viewBox="0 0 22 24" fill="none" xmlns="http://www.w3.org/2000/svg">
<path d="M20.1169 14.7918L18.3419 13.0168L10.3545 5.02984C8.88249 3.56881 6.5063 3.57322 5.03976 5.03976C3.57322 6.5063 3.56881 8.88249 5.02984 10.3545L13.0168 18.3439C13.3435 18.6707 13.8734 18.6707 14.2002 18.3439C14.5269 18.017 14.5269 17.4873 14.2002 17.1605L6.21325 9.17113C5.39638 8.35427 5.39638 7.03012 6.21325 6.21325C7.03012 5.39638 8.35426 5.39638 9.17113 6.21325L17.1605 14.2002L18.9355 15.9751C20.4061 17.4462 20.4055 19.8308 18.9346 21.3012C17.4634 22.7716 15.079 22.7713 13.6084 21.3001L12.1296 19.8207L3.84661 11.5378L3.25482 10.9462C1.18638 8.81304 1.21265 5.41476 3.31361 3.31361C5.41476 1.21265 8.81304 1.18638 10.9462 3.25482L19.8207 12.1296C20.0322 12.3409 20.3403 12.4234 20.6289 12.346C20.9178 12.2687 21.1434 12.0432 21.2207 11.7544C21.2981 11.4656 21.2154 11.1576 21.0041 10.9462L12.1296 2.07159C9.35027 -0.695026 4.85603 -0.689881 2.08317 2.08317C-0.689881 4.85603 -0.695026 9.35027 2.07159 12.1296L10.9462 21.0041L12.4272 22.4835C14.5631 24.5351 17.9479 24.5009 20.0417 22.4064C22.1357 20.312 22.169 16.9271 20.1169 14.7918Z" fill="white"/>
</svg>