<svg width="40" height="40" viewBox="0 0 40 40" fill="none" xmlns="http://www.w3.org/2000/svg">
<path fill-rule="evenodd" clip-rule="evenodd" d="M20 0C8.95996 0 0 8.95 0 20C0 26.54 3.14001 32.34 8 36C11.34 38.51 15.5 40 20 40C24.51 40 28.66 38.51 32 36.01C36.86 32.35 40 26.54 40 20C40 8.95 31.05 0 20 0ZM30.8 34.41C27.66 36.76 23.9301 38 20 38C16.0699 38 12.33 36.76 9.19995 34.4C4.63 30.96 2 25.71 2 20C2 10.07 10.0699 2 20 2C29.9301 2 38 10.07 38 20C38 25.71 35.37 30.96 30.8 34.41ZM24.5 20.5H15.5C12.1899 20.5 9.5 23.19 9.5 26.5V30H11.5V26.5C11.5 24.29 13.29 22.5 15.5 22.5H24.5C26.71 22.5 28.5 24.29 28.5 26.5V30.01H30.5V26.5C30.5 23.19 27.8101 20.5 24.5 20.5ZM25 13.5C25 16.26 22.71 18.5 20 18.5C17.29 18.5 15 16.26 15 13.5C15 10.74 16.71 8.5 20 8.5C23.29 8.5 25 10.74 25 13.5ZM23 13.5C23 12.38 22.61 10.5 20 10.5C17.39 10.5 17 12.37 17 13.5C17 15.13 18.37 16.5 20 16.5C21.63 16.5 23 15.13 23 13.5Z" fill="white"/>
</svg>
