<svg width="176" height="140" viewBox="0 0 176 140" fill="none" xmlns="http://www.w3.org/2000/svg">
<g clip-path="url(#clip0)">
<path d="M163.29 119.38L141.7 140L87.4899 81.5L70.8799 63.57L60.6199 52.5L31.0699 20.62L53.6499 0L81.2699 30.07L91.4799 41.19L108.02 59.2L163.29 119.38Z" fill="white" fill-opacity="0.4"/>
<path d="M53.65 0L31.07 20.62H0L21.3 0H53.65Z" fill="white" fill-opacity="0.1"/>
<path d="M141.7 140H113.22L95.02 120.81L115.15 121.45L105.38 111.15L82.46 86.97L65.65 69.25L55.27 58.32L49.98 52.75L33.03 34.86H23.26L44.97 57.75L44.96 57.76L31.08 53.39H31.07L0 20.62H31.07L60.62 52.5L70.88 63.57L87.49 81.5L141.7 140Z" fill="white" fill-opacity="0.2"/>
<path d="M49.98 52.75L44.97 57.75L23.26 34.86H33.03L49.98 52.75Z" fill="white" fill-opacity="0.4"/>
<path d="M115.15 121.45L95.02 120.81L105.38 111.15L115.15 121.45Z" fill="white" fill-opacity="0.4"/>
<path d="M74.43 100.16L53.75 117.07H1.21997L55.27 58.32L65.65 69.25L37.22 100.16H74.43Z" fill="white" fill-opacity="0.4"/>
<path d="M66.7 140H15.31L1.21997 117.07H53.75L66.7 140Z" fill="white" fill-opacity="0.2"/>
<path d="M161.75 6.21L134.21 36.14L111.89 40.35L118.1 33.59L130.04 20.62H110.4L91.48 41.19L81.27 30.07L103.22 6.21H161.75Z" fill="white" fill-opacity="0.4"/>
<path d="M82.46 86.97L70.33 100.16H37.22L65.65 69.25L82.46 86.97Z" fill="white" fill-opacity="0.2"/>
<path d="M111.89 40.35L117.17 49.25L108.02 59.2L91.48 41.19L110.4 20.62H110.41L118.1 33.59L111.89 40.35Z" fill="white" fill-opacity="0.2"/>
<path d="M175.01 28.81L147.55 58.64L134.21 36.14L161.75 6.21L175.01 28.81Z" fill="white" fill-opacity="0.2"/>
<path d="M147.55 58.64L125.23 62.85L117.17 49.25L111.89 40.35L134.21 36.14L147.55 58.64Z" fill="white" fill-opacity="0.3"/>
<path d="M130.04 20.62L118.1 33.59L110.41 20.62H130.04Z" fill="white" fill-opacity="0.05"/>
<path d="M86.9 122.22V122.23L66.7 140L53.75 117.07L74.43 100.16L86.9 122.22Z" fill="white" fill-opacity="0.3"/>
</g>
<defs>
<clipPath id="clip0">
<rect width="175.01" height="140" fill="white"/>
</clipPath>
</defs>
</svg>
