<svg width="88" height="88" viewBox="0 0 88 88" fill="none" xmlns="http://www.w3.org/2000/svg">
<mask id="mask0" mask-type="alpha" maskUnits="userSpaceOnUse" x="0" y="0" width="88" height="88">
<rect width="88" height="88" fill="#C4C4C4"/>
</mask>
<g mask="url(#mask0)">
<path d="M101.701 75.0389L88.2538 88L54.4907 51.2286L44.1456 39.9583L37.7555 33L19.3511 12.9611L33.4144 0L50.6167 18.9011L56.9757 25.8909L67.2772 37.2114L101.701 75.0389Z" fill="white" fill-opacity="0.4"/>
<path d="M33.4144 0L19.3511 12.9611H0L13.2661 0H33.4144Z" fill="white" fill-opacity="0.1"/>
<path d="M88.2538 88H70.5159L59.1805 75.9377L71.7179 76.34L65.6329 69.8657L51.3579 54.6668L40.8882 43.5285L34.4233 36.6583L31.1286 33.1571L20.5718 21.912H14.4868L28.0083 36.3L28.0021 36.3063L19.3573 33.5594H19.3511L0 12.9611H19.3511L37.7554 33L44.1456 39.9583L54.4907 51.2285L88.2538 88Z" fill="white" fill-opacity="0.2"/>
<path d="M31.1286 33.1571L28.0083 36.3L14.4868 21.912H20.5718L31.1286 33.1571Z" fill="white" fill-opacity="0.4"/>
<path d="M71.7179 76.34L59.1805 75.9377L65.633 69.8657L71.7179 76.34Z" fill="white" fill-opacity="0.4"/>
<path d="M46.3567 62.9577L33.4767 73.5868H0.759888L34.4234 36.6583L40.8883 43.5285L23.1815 62.9577H46.3567Z" fill="white" fill-opacity="0.4"/>
<path d="M41.5422 88H9.53544L0.759888 73.5869H33.4767L41.5422 88Z" fill="white" fill-opacity="0.2"/>
<path d="M100.741 3.90344L83.5889 22.7166L69.6875 25.3629L73.5552 21.1137L80.9917 12.9612H68.7595L56.9757 25.8909L50.6167 18.9012L64.2876 3.90344H100.741Z" fill="white" fill-opacity="0.4"/>
<path d="M51.3578 54.6669L43.803 62.9577H23.1814L40.8882 43.5286L51.3578 54.6669Z" fill="white" fill-opacity="0.2"/>
<path d="M69.6875 25.3628L72.976 30.9571L67.2772 37.2114L56.9757 25.8908L68.7595 12.9611H68.7657L73.5552 21.1137L69.6875 25.3628Z" fill="white" fill-opacity="0.2"/>
<path d="M109 18.1092L91.8973 36.8594L83.5889 22.7166L100.741 3.90344L109 18.1092Z" fill="white" fill-opacity="0.2"/>
<path d="M91.8973 36.8595L77.9959 39.5058L72.976 30.9572L69.6875 25.3629L83.5889 22.7166L91.8973 36.8595Z" fill="white" fill-opacity="0.3"/>
<path d="M80.9917 12.9611L73.5552 21.1137L68.7657 12.9611H80.9917Z" fill="white" fill-opacity="0.05"/>
<path d="M54.1232 76.824V76.8303L41.5422 88L33.4767 73.5869L46.3566 62.9578L54.1232 76.824Z" fill="white" fill-opacity="0.3"/>
</g>
</svg>
