<svg width="19" height="16" viewBox="0 0 19 16" fill="none" xmlns="http://www.w3.org/2000/svg">
<path d="M11.4657 2.74619C12.3442 3.29738 12.9602 4.2301 13.0724 5.31277C13.4307 5.48028 13.8283 5.57662 14.2499 5.57662C15.789 5.57662 17.0365 4.32833 17.0365 2.78843C17.0365 1.24829 15.789 0 14.2499 0C12.7255 0.000474545 11.4889 1.22646 11.4657 2.74619ZM9.64013 8.45545C11.1792 8.45545 12.4267 7.20692 12.4267 5.66702C12.4267 4.12712 11.179 2.87883 9.64013 2.87883C8.10126 2.87883 6.85309 4.12736 6.85309 5.66726C6.85309 7.20715 8.10126 8.45545 9.64013 8.45545ZM10.8222 8.6455H8.45764C6.4903 8.6455 4.88978 10.2473 4.88978 12.216V15.1095L4.89713 15.1548L5.09631 15.2172C6.97378 15.8043 8.60489 16 9.94744 16C12.5697 16 14.0896 15.2519 14.1833 15.2042L14.3694 15.11H14.3893V12.216C14.39 10.2473 12.7895 8.6455 10.8222 8.6455ZM15.4324 5.76691H13.0861C13.0608 6.70627 12.66 7.55215 12.0262 8.16052C13.7749 8.68085 15.0544 10.3036 15.0544 12.2202V13.1119C17.371 13.027 18.706 12.37 18.7939 12.3258L18.9801 12.2314H19V9.33691C19 7.3685 17.3995 5.76691 15.4324 5.76691ZM4.75059 5.57709C5.29572 5.57709 5.80291 5.41788 6.23256 5.14668C6.36914 4.25525 6.84669 3.47628 7.52887 2.94574C7.53171 2.89354 7.53669 2.84181 7.53669 2.78914C7.53669 1.249 6.28899 0.000711766 4.75059 0.000711766C3.21124 0.000711766 1.96402 1.249 1.96402 2.78914C1.96402 4.32856 3.21124 5.57709 4.75059 5.57709ZM7.2531 8.16052C6.62238 7.55523 6.22308 6.71386 6.19391 5.7802C6.10689 5.77379 6.02082 5.76691 5.93214 5.76691H3.56786C1.60052 5.76691 0 7.3685 0 9.33691V12.2309L0.00735056 12.2755L0.206527 12.3384C1.71268 12.8089 3.05688 13.0258 4.22444 13.0941V12.2202C4.22491 10.3036 5.50391 8.68133 7.2531 8.16052Z" fill="white"/>
</svg>
