<svg width="13" height="18" viewBox="0 0 13 18" fill="none" xmlns="http://www.w3.org/2000/svg">
<path d="M6.01801 9L0.120008 17.046C-0.173992 17.442 0.108008 18 0.600008 18H11.43C11.922 18 12.204 17.442 11.916 17.046L6.01801 9ZM1.78801 16.8L2.67001 15.6H7.22401C7.55401 15.6 7.82401 15.33 7.82401 15C7.82401 14.67 7.55401 14.4 7.22401 14.4H3.54601L6.01801 11.028L10.248 16.8H1.78801Z" fill="white"/>
<path d="M11.4364 0H0.600374C0.108374 0 -0.173626 0.558 0.120374 0.954L6.01837 9L11.9164 0.954C12.2104 0.558 11.9224 0 11.4364 0ZM8.49037 3.6H5.64637C5.31637 3.6 5.04637 3.87 5.04637 4.2C5.04637 4.53 5.31637 4.8 5.64637 4.8H7.60838L6.01837 6.972L1.78837 1.2H10.2544L8.49037 3.6Z" fill="white"/>
</svg>
