<svg width="60" height="60" viewBox="0 0 60 60" fill="none" xmlns="http://www.w3.org/2000/svg">
<path d="M1.875 15.9375L30 30L58.125 15.9375V45.9375L30 59.9998L1.875 45.9373V15.9375Z" fill="#DB5449"/>
<path d="M1.875 18.7498V27.5153L29.9062 41.2497L58.1249 27.4684V18.7498L30 32.5311L1.875 18.7498Z" fill="#C54B42"/>
<path d="M30 59.9997V30L3.75001 16.875H1.875V45.9375L30 59.9997Z" fill="#D05045"/>
<path d="M1.875 18.7498V27.5153L29.9062 41.2497L30 41.2028V32.4841V32.531L1.875 18.7498Z" fill="#BB483E"/>
<path d="M0 14.9531L30 0L60 14.9531V16.9219L30 31.8748L0 16.9687V14.9531Z" fill="#EB6258"/>
<path d="M47.2032 4.73432C46.2188 2.9531 44.1094 1.87491 41.625 1.87491C35.9532 1.87491 31.9688 7.17182 30 10.5468C28.0312 7.17182 24.0001 1.9218 18.375 1.9218C14.7657 1.9218 12.1875 4.12495 12.1875 7.12493C12.1875 12.4686 18.0469 15.9374 29.8124 15.9374C41.578 15.9374 47.8124 11.4843 47.8124 7.17182C47.8125 6.3281 47.6251 5.48438 47.2032 4.73432ZM19.5939 10.5C18.2814 9.60944 17.8127 8.62503 17.8127 7.96877C17.8127 7.17194 18.5627 6.56257 19.6408 6.56257C22.1721 6.56257 24.1876 9.89068 25.3126 12.1876C22.3595 11.9531 20.6251 11.1562 19.5939 10.5ZM40.4063 10.5C39.375 11.1563 37.6406 11.9531 34.6876 12.1875C35.7656 9.89068 37.7813 6.56245 40.3594 6.56245C41.4374 6.56245 42.1875 7.17182 42.1875 7.96865C42.1876 8.62503 41.7188 9.60932 40.4063 10.5Z" fill="#EFEFEF"/>
<path d="M0 15L30 29.6719L60 15V24.7031L29.9062 39.375L0 24.7031V15Z" fill="#E2574C"/>
<path d="M41.2499 25.453V24.375L29.9999 18.2812L18.7499 24.375V25.453L11.25 22.1718V20.6718L29.6249 10.9688L29.9999 11.1562L30.3749 10.9688L48.7498 20.6249V22.1249L41.2499 25.453Z" fill="#EFEFEF"/>
<path d="M41.25 24.3749V54.328L48.7499 50.578V20.6249L41.25 24.3749Z" fill="#DCDCDC"/>
<path d="M11.25 50.6248L18.7499 54.3748V24.4218L11.25 20.6249C11.25 20.6248 11.25 50.6248 11.25 50.6248Z" fill="#D1D1D1"/>
</svg>
