<svg width="12" height="12" viewBox="0 0 12 12" fill="none" xmlns="http://www.w3.org/2000/svg">
<path d="M6 0C2.6922 0 0 2.6919 0 6C0 9.3081 2.6922 12 6 12C9.3087 12 12 9.3081 12 6C12 2.6919 9.3087 0 6 0ZM8.6454 5.3625L6.0768 7.9317C5.898 8.1102 5.6637 8.1996 5.4294 8.1996C5.1957 8.1996 4.9611 8.1102 4.7826 7.9317L3.3552 6.5043C2.9979 6.147 2.9979 5.5671 3.3552 5.2104C3.7125 4.8528 4.2915 4.8528 4.6494 5.2104L5.4294 5.9904L7.3518 4.0683C7.7082 3.7116 8.2887 3.7116 8.6454 4.0683C9.003 4.4256 9.003 5.0052 8.6454 5.3625Z" fill="#F09C3A"/>
</svg>
