<svg width="37" height="33" viewBox="0 0 37 33" fill="none" xmlns="http://www.w3.org/2000/svg">
<path d="M0.000976562 7.50006L15.001 14.0001L30.001 7.50006V23.5001L15.001 30.9999L0.000976562 23.4999V7.50006Z" fill="#DB5449"/>
<path d="M15.001 30.9999V15.0001L0.000976562 7.50006V23.5001L15.001 30.9999Z" fill="#D05045"/>
<path d="M0.000976562 7.50006L15.001 6.10352e-05V14.9999L0.000976562 7.50006Z" fill="#B1362C"/>
<path d="M30.001 7.49988L15.001 14.9999L15.001 -5.12604e-06L30.001 7.49988Z" fill="#C54B42"/>
<circle cx="31.001" cy="27" r="6" fill="white"/>
<path d="M31.001 21C27.6932 21 25.001 23.6919 25.001 27C25.001 30.3081 27.6932 33 31.001 33C34.3097 33 37.001 30.3081 37.001 27C37.001 23.6919 34.3097 21 31.001 21ZM33.6464 26.3625L31.0778 28.9317C30.899 29.1102 30.6647 29.1996 30.4304 29.1996C30.1967 29.1996 29.9621 29.1102 29.7836 28.9317L28.3562 27.5043C27.9989 27.147 27.9989 26.5671 28.3562 26.2104C28.7135 25.8528 29.2925 25.8528 29.6504 26.2104L30.4304 26.9904L32.3528 25.0683C32.7092 24.7116 33.2897 24.7116 33.6464 25.0683C34.004 25.4256 34.004 26.0052 33.6464 26.3625Z" fill="#59BF9C"/>
<path opacity="0.8" d="M15.001 7.00006V4.00006" stroke="white" stroke-width="2" stroke-linecap="round"/>
<path opacity="0.8" d="M11.001 8.5981L9.50098 6.50006" stroke="white" stroke-width="2" stroke-linecap="round"/>
<path opacity="0.8" d="M19.0012 8.59809L20.501 6.50006" stroke="white" stroke-width="2" stroke-linecap="round"/>
</svg>
