<svg width="24" height="18" viewBox="0 0 24 18" fill="none" xmlns="http://www.w3.org/2000/svg">
<mask id="mask0" mask-type="alpha" maskUnits="userSpaceOnUse" x="0" y="0" width="24" height="18">
<path d="M22.2857 0H1.71429C0.767512 0 0 0.767512 0 1.71429V15.4286C0 16.3753 0.767512 17.1429 1.71429 17.1429H22.2857C23.2325 17.1429 24 16.3753 24 15.4286V1.71429C24 0.767512 23.2325 0 22.2857 0Z" fill="white"/>
</mask>
<g mask="url(#mask0)">
<path d="M22.2857 0H1.71429C0.767512 0 0 0.767512 0 1.71429V15.4286C0 16.3753 0.767512 17.1429 1.71429 17.1429H22.2857C23.2325 17.1429 24 16.3753 24 15.4286V1.71429C24 0.767512 23.2325 0 22.2857 0Z" fill="white"/>
<path d="M24 0H0V17.1429H24V0Z" fill="#F1361D"/>
<path fill-rule="evenodd" clip-rule="evenodd" d="M11.5766 5.1234L10.8572 5.56119L10.8767 4.71934L10.4389 4.00002L11.2808 4.01949L12.0001 3.5817L11.9806 4.42355L12.4184 5.14287L11.5766 5.1234ZM9.46388 2.79933L8.63379 2.65781L9.20078 2.03523L9.3423 1.20514L9.96488 1.77214L10.795 1.91365L10.228 2.53623L10.0865 3.36632L9.46388 2.79933ZM9.88145 10.2608L9.17784 10.7234L9.16792 9.88137L8.7053 9.17776L9.54731 9.16784L10.2509 8.70522L10.2608 9.54723L10.7235 10.2508L9.88145 10.2608ZM11.3294 7.99134L10.4925 8.08411L10.8659 7.32936L10.7732 6.49241L11.5279 6.86584L12.3648 6.77307L11.9914 7.52782L12.0842 8.36476L11.3294 7.99134Z" fill="#FFDC42"/>
<path fill-rule="evenodd" clip-rule="evenodd" d="M5.71438 7.05142L3.69911 8.48805L4.44268 6.12748L2.45361 4.65479L4.92843 4.63251L5.71438 2.28571L6.50033 4.63251L8.97514 4.65479L6.98608 6.12748L7.72964 8.48805L5.71438 7.05142Z" fill="#FFDC42"/>
</g>
</svg>
