<?xml version="1.0" encoding="UTF-8"?>
<svg width="66.66px" height="76.66px" viewBox="0 0 66.6666667 76.6666667" version="1.1" xmlns="http://www.w3.org/2000/svg" xmlns:xlink="http://www.w3.org/1999/xlink">
    <!-- Generator: Sketch 61.2 (89653) - https://sketch.com -->
    <title>画板</title>
    <desc>Created with Sketch.</desc>
    <g id="画板" stroke="none" stroke-width="1" fill="none" fill-rule="evenodd">
        <g id="编组-2">
            <rect id="矩形" x="0" y="0" width="66.6666667" height="76.6666667"></rect>
            <rect id="矩形" fill="#313333" x="0" y="0" width="66.6666667" height="76.6666667" rx="4"></rect>
            <g id="编组" transform="translate(10, 16.666666)">
                <polygon id="矩形" fill="#FFFFFF" points="30.5661433 24.1423543 40 23.3333333 40 41.6666667 23.3333333 41.6666667"></polygon>
                <g id="QA" fill="#88BDFF" fill-rule="nonzero">
                    <path d="M30.4214871,34.235345 L34.6774215,34.235345 L32.5311643,27.9597065 L30.4214871,34.235345 Z M19.7999314,41.4084264 C19.7999314,42.8999769 20.9828152,44.1006485 22.4522686,44.1006485 L41.8844644,44.1006485 C43.3539179,44.1006485 44.5368017,42.8999769 44.5368017,41.4084264 L44.5368017,21.6840172 C44.5368017,20.1924667 43.3539179,18.9917951 41.8844644,18.9917951 L28.6349848,18.9917951 L28.6349848,25.2674336 C28.6349848,26.7527966 27.452101,27.9596556 25.9826475,27.9596556 L19.7999314,27.9596556 L19.7999314,41.4084264 Z M36.1407625,37.7940368 L35.457863,36.0301699 L29.6532293,36.0301699 L28.9703297,37.8249846 C28.6959502,38.5243408 28.4764463,39.0008959 28.2813343,39.2484572 C28.0862198,39.5083956 27.7874509,39.6136092 27.354541,39.6136092 C27.000896,39.6136092 26.6655456,39.489829 26.3911626,39.2360792 C26.1167831,38.9823298 25.9765442,38.6728786 25.9765442,38.3386718 C25.9765442,38.1591903 26.0009335,37.9611418 26.0741012,37.7630912 C26.1289773,37.5650426 26.2448263,37.26797 26.3911621,36.902819 L30.0495587,27.8978081 C30.1471157,27.6440582 30.2690626,27.3346075 30.4214957,26.9756456 C30.5617341,26.6104936 30.7324592,26.3134195 30.8909897,26.0782382 C31.0556175,25.8368664 31.2629267,25.6388179 31.543405,25.4840951 C31.8177845,25.3417478 32.1409428,25.2612904 32.5494643,25.2612904 C32.9457907,25.2612904 33.2811456,25.3417478 33.5555236,25.4840951 C33.8238058,25.6388204 34.031115,25.8306799 34.2018381,26.0596757 C34.3725633,26.3010475 34.5128017,26.5547969 34.6164565,26.8147348 C34.7323056,27.0808627 34.8847387,27.4336382 35.0554643,27.8792455 L38.7809302,36.8347463 C39.0736017,37.51554 39.219938,38.0106576 39.219938,38.3139218 C39.219938,38.6543176 39.0796996,38.9513928 38.8053196,39.2113291 C38.5309401,39.4836456 38.1955851,39.6074263 37.8175528,39.6074263 C37.5797569,39.6074263 37.3846423,39.5826702 37.2139192,39.5022132 C37.0553888,39.4155672 36.9334424,39.3165427 36.8175928,39.1803845 C36.7261332,39.0442262 36.6041863,38.8276106 36.4761425,38.5491061 C36.3358771,38.2705904 36.220028,38.0230306 36.1407625,37.7940368 Z M17.6353917,17.6487753 C18.0804963,17.1722213 18.3975572,16.5966447 18.5987701,15.9282311 C18.8121766,15.25363 18.915831,14.4861908 18.915831,13.5887835 C18.915831,12.4747625 18.7207164,11.5154648 18.36707,10.6985154 C17.9890356,9.88156599 17.464665,9.28123023 16.7878613,8.86037797 C16.0988659,8.4395247 15.3305995,8.23528709 14.4464871,8.23528709 C13.8123643,8.23528709 13.2270232,8.35906726 12.7087515,8.588061 C12.1721872,8.8108657 11.708788,9.15126154 11.3307557,9.5844939 C10.9405266,10.0301033 10.6356594,10.5871143 10.4222549,11.280283 C10.1905563,11.9734518 10.0869019,12.7408909 10.0869019,13.5764079 C10.0869019,15.3155198 10.5015203,16.6585396 11.3307542,17.5992697 C12.1538931,18.5338122 13.2209259,18.9979872 14.4830707,18.9979872 C15.0135391,18.9979872 15.5501034,18.8989632 16.0988644,18.6761585 C15.7696088,18.4409757 15.3549914,18.1996044 14.861108,17.9582346 C14.3550279,17.7230519 14.0135807,17.5435704 13.8367562,17.4012216 C13.6416416,17.2774414 13.5623767,17.09796 13.5623767,16.8380211 C13.5623767,16.6523506 13.6416422,16.460491 13.8184646,16.2933881 C13.9891898,16.1324738 14.1782069,16.0520163 14.4038057,16.0520163 C15.037932,16.0520118 16.1171564,16.5780771 17.6353917,17.6487753 Z M2.12986958,3.75443787 L2.12986958,23.4788471 C2.12986958,24.9703976 3.31275338,26.1710692 4.78220685,26.1710692 L24.2144026,26.1710692 C25.6838561,26.1710692 26.8667399,24.9703976 26.8667399,23.4788471 L26.8667399,3.7482809 C26.8667399,2.25673038 25.6838561,1.05605886 24.2144026,1.05605886 L4.78220685,1.05605886 C3.31275338,1.06221584 2.12986958,2.26288736 2.12986958,3.75443787 Z M19.8974598,19.2207685 C20.2876888,19.4745184 20.7266946,19.7220787 21.1961896,19.944885 C21.6656836,20.1862568 21.9827435,20.3657382 22.1351796,20.5080855 C22.2876128,20.6442437 22.3729756,20.8299142 22.3729756,21.0836661 C22.3729756,21.2569586 22.2754186,21.4364401 22.0924987,21.6282991 C21.9095789,21.7892134 21.6778803,21.8882375 21.4278917,21.8882375 C21.2083878,21.8882375 20.9583977,21.8263471 20.6596303,21.702567 C20.3486668,21.5602197 20.007215,21.3621711 19.6108901,21.1269863 C19.1962717,20.8546699 18.7511661,20.5637858 18.2877719,20.229579 C17.306101,20.607109 16.1049297,20.786592 14.7025455,20.786592 C13.5440551,20.786592 12.5197032,20.6132996 11.6112024,20.2667142 C10.7027016,19.9325074 9.92224356,19.4250097 9.30641328,18.7875387 C8.69058301,18.1438802 8.221088,17.3764411 7.91012494,16.4852263 C7.59306404,15.587819 7.44063093,14.6223338 7.44063093,13.570198 C7.44063093,12.5118748 7.59306404,11.5463896 7.91012494,10.6489823 C8.22718584,9.76395502 8.68448717,9.00889087 9.28812075,8.37761248 C9.89785518,7.75870911 10.6295315,7.28215911 11.4953514,6.94175971 C12.3672671,6.60755291 13.348938,6.4404495 14.4525559,6.4404495 C15.934206,6.4404495 17.22684,6.74371114 18.3060644,7.35642446 C19.3852889,7.95676022 20.1962362,8.81084484 20.7449972,9.91867831 C21.2937582,11.0203243 21.5681361,12.3262038 21.5681361,13.8239469 C21.5681261,16.1015067 21.0010726,17.9025089 19.8974598,19.2207685 Z" id="形状"></path>
                </g>
            </g>
        </g>
    </g>
</svg>