<?xml version="1.0" encoding="UTF-8"?>
<svg width="232px" height="50px" viewBox="0 0 232 50" version="1.1" xmlns="http://www.w3.org/2000/svg" xmlns:xlink="http://www.w3.org/1999/xlink">
    <title>Bounty</title>
    <g id="页面-1" stroke="none" stroke-width="1" fill="none" fill-rule="evenodd">
        <g id="Portal" transform="translate(-839.000000, -398.000000)" fill-rule="nonzero">
            <g id="Bounty备份" transform="translate(839.000000, 398.000000)">
                <g id="Bounty-icon-font" transform="translate(4.000000, 4.000000)">
                    <path d="M77.7717669,1 L77.7717669,3.76073419 L67.9306644,3.76073419 L67.9306644,10.270481 L77.7717669,10.270481 L77.7717669,13.0312152 L65,13.0312152 L65,1 L77.7717669,1 Z M93.2484115,1 L93.2484115,13.0312152 L80.4766447,13.0312152 L80.4766447,1 L93.2484115,1 Z M108.725056,1 L108.725056,13.0312152 L105.794392,13.0312152 L105.794392,3.76073419 L98.881673,3.76073419 L98.881673,13.0312152 L95.9532893,13.0312152 L95.9532893,1 L108.725056,1 Z M124.051177,1 L124.051177,3.76073419 L114.283056,3.76073419 L114.283056,5.59979137 L120.819463,5.59979137 L120.819463,8.43142379 L114.283056,8.43142379 L114.283056,13.0312152 L111.27941,13.0312152 L111.27941,1 L124.051177,1 Z M129.684438,1 L129.684438,10.270481 L136.597157,10.270481 L136.597157,7.01560758 L139.527821,7.01560758 L139.527821,13.0312152 L126.756054,13.0312152 L126.756054,1 L129.684438,1 Z M144.862314,1 L144.862314,10.270481 L151.772753,10.270481 L151.772753,1 L154.703417,1 L154.703417,13.0312152 L141.93165,13.0312152 L141.93165,1 L144.862314,1 Z M160.788252,1 L160.788252,2.21816054 L164.092946,5.33123747 L167.399922,2.21816054 L167.399922,1 L170.47883,1 L170.47883,3.81659341 L167.085189,7.01560758 L167.399922,7.3120911 L170.47883,10.2146218 L170.47883,13.0312152 L167.399922,13.0312152 L167.399922,11.8130546 L164.092946,8.69782928 L160.788252,11.8130546 L160.788252,13.0312152 L157.707063,13.0312152 L157.707063,10.2146218 L160.788252,7.3120911 L161.102985,7.01560758 L157.707063,3.81659341 L157.707063,1 L160.788252,1 Z M90.3154664,3.76073419 L83.407309,3.76073419 L83.407309,10.270481 L90.3154664,10.270481 L90.3154664,3.76073419 Z" id="Conflux" fill="#85888D" opacity="0.8"></path>
                    <g id="编组-2" transform="translate(65.000000, 16.420290)" fill="#F7F7F7">
                        <path d="M104.61416,0.254010145 L104.61416,22.6540101 L99.44676,22.6540101 L99.44676,5.39397014 L87.24856,5.39397014 L87.24856,22.6540101 L82.07696,22.6540101 L82.07696,0.254010145 L104.61416,0.254010145 Z M50.25902,0.254010145 L50.25902,22.6540101 L27.72182,22.6540101 L27.72182,0.254010145 L50.25902,0.254010145 Z M60.20336,0.254010145 L60.20336,17.5140501 L72.40156,17.5140501 L72.40156,0.254010145 L77.56896,0.254010145 L77.56896,22.6540101 L55.03176,22.6540101 L55.03176,0.254010145 L60.20336,0.254010145 Z M131.65796,0.254010145 L131.65796,5.39397014 L123.00596,5.39397014 L123.00596,22.6540101 L117.77416,22.6540101 L117.77416,5.39397014 L109.12076,5.39397014 L109.12076,0.254010145 L131.65796,0.254010145 Z M141.86396,0.254010145 L141.86396,2.51809014 L147.70056,8.31801014 L153.53156,2.51809014 L153.53156,0.254010145 L158.96916,0.254010145 L158.96916,5.49799014 L150.31576,14.0980501 L150.31576,22.6540101 L145.08396,22.6540101 L145.08396,14.0980501 L136.43196,5.49799014 L136.43196,0.254010145 L141.86396,0.254010145 Z M21.33894,0.254010145 L21.33894,9.05399014 L22.9488,9.05399014 L22.9488,22.6540101 L0.4116,22.6540101 L0.4116,0.254010145 L21.33894,0.254010145 Z M45.09162,5.39397014 L32.89328,5.39397014 L32.89328,17.5140501 L45.09162,17.5140501 L45.09162,5.39397014 Z M17.717,13.8540301 L5.58306,13.8540301 L5.58306,17.5140501 L17.717,17.5140501 L17.717,13.8540301 Z M16.10714,5.39397014 L5.58306,5.39397014 L5.58306,9.05399014 L16.10714,9.05399014 L16.10714,5.39397014 Z" id="形状结合"></path>
                    </g>
                    <g id="badge">
                        <polygon id="路径" fill="#00347A" points="43 18 38 18 38 0 43 2.12272291"></polygon>
                        <path d="M38.07875,16.1095833 L38.07875,0 L0,0 L0,41 L41,41 L41,16.1095833 L38.07875,16.1095833 Z M9.41291667,9.41291667 L28.5633333,9.41291667 L28.5633333,16.1095833 L9.41291667,16.1095833 L9.41291667,9.41291667 Z M31.4845833,31.5870833 L9.41291667,31.5870833 L9.41291667,24.8904167 L31.4845833,24.8904167 L31.4845833,31.5870833 Z" id="形状" fill="#7BBDFF"></path>
                        <polygon id="路径" fill="#00347A" points="10 9 10 16 14.4616071 16 14.4616071 11.5178571 29 11.5178571 29 9"></polygon>
                        <polygon id="路径" fill="#00347A" points="46 41 41 41 41 16 46 16.9780335"></polygon>
                        <polygon id="路径" fill="#00347A" points="10 25 10 32 14.4783282 32 14.4783282 27.5178571 32 27.5178571 32 25"></polygon>
                    </g>
                </g>
            </g>
        </g>
    </g>
</svg>