<svg width="197" height="40" viewBox="0 0 197 40" fill="none" xmlns="http://www.w3.org/2000/svg">
<path d="M46.94 34.1086L40.7336 40L25.1502 23.2857L20.3755 18.1629L17.4261 15L8.93152 5.89143L15.4225 0L23.3622 8.59143L26.2972 11.7686L31.0519 16.9143L46.94 34.1086Z" fill="#80BFFF"/>
<path d="M15.4224 0L8.9315 5.89143H0L6.12298 0H15.4224Z" fill="#1163D1"/>
<path d="M40.7336 40.0002H32.5466L27.3148 34.5173L33.1015 34.7002L30.2929 31.7573L23.7043 24.8487L18.872 19.7859L15.8881 16.663L14.3674 15.0716L9.49493 9.96017H6.68641L12.9272 16.5002L12.9244 16.503L8.93437 15.2545H8.9315L0 5.8916H8.9315L17.4261 15.0002L20.3754 18.163L25.1502 23.2859L40.7336 40.0002Z" fill="#104285"/>
<path d="M14.3674 15.0714L12.9272 16.5L6.6864 9.95996H9.49492L14.3674 15.0714Z" fill="#80BFFF"/>
<path d="M33.1015 34.6997L27.3148 34.5168L30.2929 31.7568L33.1015 34.6997Z" fill="#80BFFF"/>
<path d="M21.3959 28.6174L15.4512 33.4488H0.350708L15.8881 16.6631L18.872 19.7859L10.6994 28.6174H21.3959Z" fill="#80BFFF"/>
<path d="M19.1738 39.9997H4.40107L0.350708 33.4482H15.4512L19.1738 39.9997Z" fill="#1163D1"/>
<path d="M46.4973 1.77441L38.5805 10.3258L32.1643 11.5287L33.9495 9.59727L37.3818 5.89156H31.736L26.2972 11.7687L23.3622 8.59156L29.672 1.77441H46.4973Z" fill="#80BFFF"/>
<path d="M23.7043 24.849L20.2174 28.6176H10.6995L18.8721 19.7861L23.7043 24.849Z" fill="#1163D1"/>
<path d="M32.1644 11.5287L33.6822 14.0716L31.0519 16.9145L26.2972 11.7687L31.7361 5.8916H31.7389L33.9495 9.59732L32.1644 11.5287Z" fill="#1163D1"/>
<path d="M50.3091 8.23156L42.4153 16.7544L38.5806 10.3258L46.4973 1.77441L50.3091 8.23156Z" fill="#1163D1"/>
<path d="M42.4153 16.7547L35.9991 17.9576L33.6821 14.0719L32.1643 11.529L38.5805 10.3262L42.4153 16.7547Z" fill="#177DE6"/>
<path d="M37.3818 5.8916L33.9495 9.59732L31.7389 5.8916H37.3818Z" fill="#104285"/>
<path d="M24.9806 34.92V34.9229L19.1738 40L15.4512 33.4486L21.3959 28.6172L24.9806 34.92Z" fill="#177DE6"/>
<path d="M67.1055 4.9976V13.6547H79.5096V17.3262H63.4116V1.32617H79.5096V4.9976H67.1055Z" fill="#171D1F"/>
<path d="M82.9189 1.32617V17.3262H99.0169V1.32617H82.9189ZM95.3259 13.6547H86.6128V4.9976H95.3259V13.6547Z" fill="#171D1F"/>
<path d="M118.524 1.32617V17.3262H114.833V4.9976H106.12V17.3262H102.426V1.32617H118.524Z" fill="#171D1F"/>
<path d="M137.842 22.6738V38.6738H134.151V26.3453H125.438V38.6738H121.744V22.6738H137.842Z" fill="#171D1F"/>
<path d="M125.533 4.9976V7.44331H133.771V11.209H125.533V17.3262H121.744V1.32617H137.842V4.9976H125.533Z" fill="#171D1F"/>
<path d="M157.349 9.32617V17.3262H141.251V1.32617H144.945V13.6547H153.655V9.32617H157.349Z" fill="#171D1F"/>
<path d="M176.477 1.32617V17.3262H160.379V1.32617H164.073V13.6547H172.786V1.32617H176.477Z" fill="#171D1F"/>
<path d="M192.083 9.32617L192.48 9.72046L196.364 13.5805V17.3262H192.48V15.7062L188.315 11.5633L184.146 15.7062V17.3262H180.266V13.5805L184.146 9.72046L184.546 9.32617L180.266 5.07189V1.32617H184.146V2.94617L188.315 7.08617L192.48 2.94617V1.32617H196.364V5.07189L192.083 9.32617Z" fill="#171D1F"/>
<path d="M82.9189 22.6738V38.6738H99.0169V22.6738H82.9189ZM95.3259 35.0024H86.6128V26.3453H95.3259V35.0024Z" fill="#171D1F"/>
<path d="M118.524 22.6738V38.6738H102.426V22.6738H106.12V35.0024H114.833V22.6738H118.524Z" fill="#171D1F"/>
<path d="M157.159 22.6738V26.3453H150.979V38.6738H147.242V26.3453H141.061V22.6738H157.159Z" fill="#171D1F"/>
<path d="M176.667 22.6738V26.4195L170.486 32.5624V38.6738H166.749V32.5624L160.569 26.4195V22.6738H164.449V24.291L168.618 28.4338L172.783 24.291V22.6738H176.667Z" fill="#171D1F"/>
<path d="M78.3597 28.9595V22.6738H63.4116V38.6738H79.5096V28.9595H78.3597ZM67.1055 26.3453H74.6227V28.9595H67.1055V26.3453ZM75.7726 35.0024H67.1055V32.3881H75.7726V35.0024Z" fill="#171D1F"/>
</svg>
