<svg width="158" height="32" viewBox="0 0 158 32" fill="none" xmlns="http://www.w3.org/2000/svg">
<g clip-path="url(#clip0)">
<path d="M37.552 27.2869L32.587 32L20.1202 18.6286L16.3004 14.5303L13.9409 12L7.14526 4.71314L12.338 0L18.6898 6.87314L21.0378 9.41486L24.8415 13.5314L37.552 27.2869Z" fill="#80BFFF"/>
<path d="M12.3379 0L7.1452 4.71314H0L4.89838 0H12.3379Z" fill="#1163D1"/>
<path d="M32.5869 32H26.0373L21.8518 27.6137L26.4812 27.76L24.2343 25.4057L18.9634 19.8788L15.0976 15.8286L12.7105 13.3303L11.494 12.0571L7.59594 7.96799H5.34913L10.3418 13.2L10.3395 13.2023L7.1475 12.2034H7.1452L0 4.71313H7.1452L13.9408 12L16.3003 14.5303L20.1202 18.6286L32.5869 32Z" fill="#104285"/>
<path d="M11.4939 12.0572L10.3418 13.2L5.34912 7.96802H7.59594L11.4939 12.0572Z" fill="#80BFFF"/>
<path d="M26.4811 27.76L21.8518 27.6138L24.2343 25.4058L26.4811 27.76Z" fill="#80BFFF"/>
<path d="M17.1168 22.8938L12.361 26.7589H0.28064L12.7106 13.3303L15.0977 15.8286L8.5596 22.8938H17.1168Z" fill="#80BFFF"/>
<path d="M15.3391 32.0001H3.52093L0.28064 26.7589H12.361L15.3391 32.0001Z" fill="#1163D1"/>
<path d="M37.1978 1.41943L30.8644 8.26058L25.7314 9.22286L27.1595 7.67772L29.9054 4.71315H25.3888L21.0377 9.41486L18.6897 6.87315L23.7376 1.41943H37.1978Z" fill="#80BFFF"/>
<path d="M18.9635 19.8789L16.1739 22.8938H8.55957L15.0976 15.8286L18.9635 19.8789Z" fill="#1163D1"/>
<path d="M25.7314 9.22285L26.9457 11.2571L24.8414 13.5314L21.0377 9.41485L25.3888 4.71313H25.3911L27.1595 7.67771L25.7314 9.22285Z" fill="#1163D1"/>
<path d="M40.2472 6.58515L33.9322 13.4034L30.8644 8.26058L37.1978 1.41943L40.2472 6.58515Z" fill="#1163D1"/>
<path d="M33.9322 13.4035L28.7993 14.3658L26.9457 11.2572L25.7314 9.22291L30.8644 8.26062L33.9322 13.4035Z" fill="#177DE6"/>
<path d="M29.9054 4.71313L27.1596 7.67771L25.3911 4.71313H29.9054Z" fill="#104285"/>
<path d="M19.9845 27.936V27.9382L15.3391 32L12.361 26.7588L17.1168 22.8937L19.9845 27.936Z" fill="#177DE6"/>
<path d="M53.6845 3.99769V10.9234H63.6077V13.8605H50.7294V1.06055H63.6077V3.99769H53.6845Z" fill="white"/>
<path d="M66.3352 1.06055V13.8605H79.2136V1.06055H66.3352ZM76.2607 10.9234H69.2903V3.99769H76.2607V10.9234Z" fill="white"/>
<path d="M94.8193 1.06055V13.8605H91.8665V3.99769H84.896V13.8605H81.9409V1.06055H94.8193Z" fill="white"/>
<path d="M110.273 18.1394V30.9394H107.321V21.0765H100.35V30.9394H97.395V18.1394H110.273Z" fill="white"/>
<path d="M100.426 3.99769V5.95426H107.017V8.96683H100.426V13.8605H97.395V1.06055H110.273V3.99769H100.426Z" fill="white"/>
<path d="M125.879 7.46055V13.8605H113.001V1.06055H115.956V10.9234H122.924V7.46055H125.879Z" fill="white"/>
<path d="M141.181 1.06055V13.8605H128.303V1.06055H131.258V10.9234H138.229V1.06055H141.181Z" fill="white"/>
<path d="M153.667 7.46055L153.984 7.77597L157.091 10.864V13.8605H153.984V12.5645L150.652 9.25026L147.317 12.5645V13.8605H144.213V10.864L147.317 7.77597L147.637 7.46055L144.213 4.05712V1.06055H147.317V2.35655L150.652 5.66855L153.984 2.35655V1.06055H157.091V4.05712L153.667 7.46055Z" fill="white"/>
<path d="M66.3352 18.1394V30.9394H79.2136V18.1394H66.3352ZM76.2607 28.0023H69.2903V21.0765H76.2607V28.0023Z" fill="white"/>
<path d="M94.8193 18.1394V30.9394H81.9409V18.1394H84.896V28.0023H91.8665V18.1394H94.8193Z" fill="white"/>
<path d="M125.727 18.1394V21.0765H120.783V30.9394H117.793V21.0765H112.849V18.1394H125.727Z" fill="white"/>
<path d="M141.333 18.1394V21.136L136.389 26.0503V30.9394H133.399V26.0503L128.455 21.136V18.1394H131.559V19.4331L134.894 22.7474L138.226 19.4331V18.1394H141.333Z" fill="white"/>
<path d="M62.6879 23.168V18.1394H50.7294V30.9394H63.6077V23.168H62.6879ZM53.6845 21.0765H59.6982V23.168H53.6845V21.0765ZM60.6181 28.0023H53.6845V25.9108H60.6181V28.0023Z" fill="white"/>
</g>
<defs>
<clipPath id="clip0">
<rect width="157.091" height="32" fill="white"/>
</clipPath>
</defs>
</svg>
