<svg width="197" height="40" viewBox="0 0 197 40" fill="none" xmlns="http://www.w3.org/2000/svg">
<g clip-path="url(#clip0)">
<path d="M46.94 34.1086L40.7336 40L25.1502 23.2857L20.3755 18.1629L17.4261 15L8.93152 5.89143L15.4225 0L23.3622 8.59143L26.2972 11.7686L31.0519 16.9143L46.94 34.1086Z" fill="#80BFFF"/>
<path d="M15.4224 0L8.9315 5.89143H0L6.12298 0H15.4224Z" fill="#1163D1"/>
<path d="M40.7336 40H32.5466L27.3148 34.5171L33.1015 34.7L30.2929 31.7571L23.7043 24.8486L18.872 19.7857L15.8881 16.6629L14.3674 15.0714L9.49493 9.96001H6.68641L12.9272 16.5L12.9244 16.5029L8.93437 15.2543H8.9315L0 5.89143H8.9315L17.4261 15L20.3754 18.1629L25.1502 23.2857L40.7336 40Z" fill="#104285"/>
<path d="M14.3674 15.0714L12.9272 16.5L6.6864 9.96001H9.49492L14.3674 15.0714Z" fill="#80BFFF"/>
<path d="M33.1015 34.7L27.3148 34.5171L30.2929 31.7571L33.1015 34.7Z" fill="#80BFFF"/>
<path d="M21.3959 28.6171L15.4512 33.4486H0.350708L15.8881 16.6629L18.872 19.7857L10.6994 28.6171H21.3959Z" fill="#80BFFF"/>
<path d="M19.1738 40H4.40107L0.350708 33.4486H15.4512L19.1738 40Z" fill="#1163D1"/>
<path d="M46.4973 1.77428L38.5805 10.3257L32.1643 11.5286L33.9495 9.59713L37.3818 5.89142H31.736L26.2972 11.7686L23.3622 8.59142L29.672 1.77428H46.4973Z" fill="#80BFFF"/>
<path d="M23.7043 24.8486L20.2174 28.6172H10.6995L18.8721 19.7857L23.7043 24.8486Z" fill="#1163D1"/>
<path d="M32.1644 11.5286L33.6822 14.0714L31.0519 16.9143L26.2972 11.7686L31.7361 5.89143H31.7389L33.9495 9.59715L32.1644 11.5286Z" fill="#1163D1"/>
<path d="M50.3091 8.23142L42.4153 16.7543L38.5806 10.3257L46.4973 1.77428L50.3091 8.23142Z" fill="#1163D1"/>
<path d="M42.4153 16.7543L35.9991 17.9571L33.6821 14.0714L32.1643 11.5286L38.5805 10.3257L42.4153 16.7543Z" fill="#177DE6"/>
<path d="M37.3818 5.89143L33.9495 9.59715L31.7389 5.89143H37.3818Z" fill="#104285"/>
<path d="M24.9806 34.92V34.9229L19.1738 40L15.4512 33.4486L21.3959 28.6171L24.9806 34.92Z" fill="#177DE6"/>
<path d="M67.1055 4.99714V13.6543H79.5096V17.3257H63.4116V1.32571H79.5096V4.99714H67.1055Z" fill="white"/>
<path d="M82.9189 1.32571V17.3257H99.0169V1.32571H82.9189ZM95.3259 13.6543H86.6128V4.99714H95.3259V13.6543Z" fill="white"/>
<path d="M118.524 1.32571V17.3257H114.833V4.99714H106.12V17.3257H102.426V1.32571H118.524Z" fill="white"/>
<path d="M137.842 22.6743V38.6743H134.151V26.3457H125.438V38.6743H121.744V22.6743H137.842Z" fill="white"/>
<path d="M125.533 4.99714V7.44286H133.771V11.2086H125.533V17.3257H121.744V1.32571H137.842V4.99714H125.533Z" fill="white"/>
<path d="M157.349 9.32571V17.3257H141.251V1.32571H144.945V13.6543H153.655V9.32571H157.349Z" fill="white"/>
<path d="M176.477 1.32571V17.3257H160.379V1.32571H164.073V13.6543H172.786V1.32571H176.477Z" fill="white"/>
<path d="M192.083 9.32571L192.48 9.72L196.364 13.58V17.3257H192.48V15.7057L188.315 11.5629L184.146 15.7057V17.3257H180.266V13.58L184.146 9.72L184.546 9.32571L180.266 5.07143V1.32571H184.146V2.94571L188.315 7.08571L192.48 2.94571V1.32571H196.364V5.07143L192.083 9.32571Z" fill="white"/>
<path d="M82.9189 22.6743V38.6743H99.0169V22.6743H82.9189ZM95.3259 35.0029H86.6128V26.3457H95.3259V35.0029Z" fill="white"/>
<path d="M118.524 22.6743V38.6743H102.426V22.6743H106.12V35.0029H114.833V22.6743H118.524Z" fill="white"/>
<path d="M157.159 22.6743V26.3457H150.979V38.6743H147.242V26.3457H141.061V22.6743H157.159Z" fill="white"/>
<path d="M176.667 22.6743V26.42L170.486 32.5629V38.6743H166.749V32.5629L160.569 26.42V22.6743H164.449V24.2914L168.618 28.4343L172.783 24.2914V22.6743H176.667Z" fill="white"/>
<path d="M78.3597 28.96V22.6743H63.4116V38.6743H79.5096V28.96H78.3597ZM67.1055 26.3457H74.6227V28.96H67.1055V26.3457ZM75.7726 35.0029H67.1055V32.3886H75.7726V35.0029Z" fill="white"/>
</g>
<defs>
<clipPath id="clip0">
<rect width="196.364" height="40" fill="white"/>
</clipPath>
</defs>
</svg>
