<svg width="13" height="15" viewBox="0 0 13 15" fill="none" xmlns="http://www.w3.org/2000/svg">
<path d="M12.25 0H10.25V15H12.25C12.665 15 13 14.665 13 14.25V0.75C13 0.335 12.665 0 12.25 0Z" fill="#595F61"/>
<path d="M0.75 0C0.335 0 0 0.335 0 0.75V14.25C0 14.665 0.335 15 0.75 15H9.75V0H0.75ZM4.945 10.73C4.605 10.73 4.325 10.48 4.325 10.14C4.325 9.8 4.605 9.555 4.945 9.555C5.285 9.555 5.565 9.8 5.565 10.14C5.565 10.48 5.285 10.73 4.945 10.73ZM6.12 7.39C5.625 7.78 5.495 7.94 5.415 8.37C5.335 8.635 5.22 8.795 4.935 8.795C4.645 8.795 4.48 8.605 4.48 8.335C4.48 7.765 4.67 7.46 5.33 6.935C5.8 6.56 6.02 6.325 6.02 5.91C6.02 5.435 5.61 5.095 5.06 5.095C4.57 5.095 4.245 5.295 4.015 5.74C3.89 5.95 3.79 6.03 3.61 6.03C3.365 6.03 3.22 5.855 3.22 5.625C3.22 5.31 3.41 4.96 3.705 4.705C4.03 4.425 4.5 4.27 5.105 4.27C6.26 4.27 7.055 4.895 7.055 5.875C7.06 6.53 6.73 6.92 6.12 7.39Z" fill="#595F61"/>
</svg>
