<svg width="28" height="28" viewBox="0 0 28 28" fill="none" xmlns="http://www.w3.org/2000/svg">
<path opacity="0.08" d="M25.375 0H2.625C1.17525 0 0 1.17525 0 2.625V25.375C0 26.8247 1.17525 28 2.625 28H25.375C26.8247 28 28 26.8247 28 25.375V2.625C28 1.17525 26.8247 0 25.375 0Z" fill="white"/>
<path d="M11.3052 23.625C11.3776 23.5439 11.4216 23.4384 11.4263 23.3121C11.4563 22.4983 11.4351 21.6826 11.4351 20.8958C10.8458 20.9233 10.2833 20.9978 9.7271 20.9657C8.50039 20.895 7.55774 20.371 7.06886 19.1685C6.77927 18.4562 6.3429 17.8469 5.6633 17.4403C5.53639 17.3643 5.42544 17.2524 5.32833 17.1387C5.20142 16.9905 5.22516 16.8383 5.42568 16.7976C5.62798 16.7564 5.84899 16.7276 6.04848 16.765C6.83198 16.9122 7.37379 17.4041 7.78852 18.0584C8.60858 19.3528 9.87087 19.749 11.291 19.1513C11.3702 19.118 11.4709 19.0372 11.4858 18.9634C11.6003 18.3904 11.8142 17.868 12.2453 17.4099C11.766 17.3211 11.3221 17.2557 10.8867 17.1546C9.63296 16.8642 8.50669 16.3418 7.68309 15.3041C7.01112 14.4577 6.70384 13.4668 6.56259 12.4123C6.34137 10.7605 6.53938 9.21438 7.67249 7.89443C7.72974 7.82775 7.76078 7.69114 7.73531 7.60808C7.45153 6.67982 7.49489 5.75936 7.77615 4.84146C7.92375 4.3594 7.96485 4.33538 8.45624 4.40256C8.48629 4.4066 8.51551 4.41415 8.54531 4.41923C9.53033 4.58238 10.3782 5.05985 11.2134 5.57248C11.3256 5.64143 11.4967 5.68434 11.62 5.65431C13.6148 5.16973 15.6058 5.17175 17.6004 5.65608C17.7162 5.6841 17.8708 5.6442 17.9815 5.58614C18.4356 5.34852 18.8702 5.07227 19.3301 4.84698C19.8651 4.58514 20.4286 4.38816 21.0353 4.39901C21.1415 4.40103 21.3057 4.50253 21.3413 4.59649C21.7063 5.56464 21.7832 6.55125 21.4924 7.55881C21.4613 7.66638 21.5075 7.81966 21.5653 7.92571C21.8524 8.45299 22.2532 8.93958 22.4348 9.49888C22.9885 11.2036 22.7867 12.8918 22.033 14.494C21.3423 15.9626 20.0614 16.7068 18.5451 17.0907C18.033 17.2203 17.5084 17.299 16.9559 17.4076C17.6799 18.1647 17.7934 19.0886 17.7805 20.0563C17.7672 21.0545 17.7707 22.053 17.7702 23.0514C17.77 23.3027 17.8269 23.4955 17.9332 23.625H11.3052Z" fill="white"/>
</svg>
