<svg width="20" height="20" viewBox="0 0 20 20" fill="none" xmlns="http://www.w3.org/2000/svg">
<path d="M17.0619 2.93278C15.2061 1.07699 12.7489 0.0416407 10.1299 0.00703126C10.0843 0.00289063 10.039 0 9.99459 0C9.95014 0 9.90486 0.00289063 9.85924 0.00703126C7.24025 0.0416016 4.7831 1.07696 2.92731 2.93274C1.03961 4.82052 0 7.33037 0 9.99998C0 12.6696 1.03961 15.1795 2.92735 17.0672C4.78313 18.923 7.24025 19.9584 9.85928 19.9929C9.9049 19.9971 9.95018 20 9.99459 20C10.039 20 10.0843 19.9971 10.1299 19.9929C12.749 19.9584 15.2061 18.923 17.0619 17.0672C18.9496 15.1795 19.9892 12.6697 19.9892 9.99998C19.9892 7.33037 18.9496 4.82052 17.0619 2.93278ZM3.76751 3.77294C4.82927 2.71118 6.11462 1.9545 7.5172 1.54567C7.20107 1.90961 6.89376 2.32821 6.60775 2.79208C6.24294 3.38372 5.92708 4.02497 5.66259 4.70298H2.95809C3.20419 4.37747 3.47395 4.06649 3.76751 3.77294ZM2.2011 5.89114H5.26255C4.94419 7.00529 4.75591 8.19224 4.70938 9.40592H1.20832C1.29055 8.16357 1.62996 6.9713 2.2011 5.89114ZM2.20114 14.1089C1.62993 13.0287 1.29051 11.8364 1.20828 10.5941H4.70935C4.75587 11.8078 4.94415 12.9948 5.26251 14.1089H2.20114ZM3.76755 16.2271C3.47391 15.9335 3.20415 15.6226 2.95809 15.297H5.66263C5.92712 15.975 6.24294 16.6163 6.60779 17.2079C6.8938 17.6718 7.20111 18.0904 7.51724 18.4543C6.1147 18.0455 4.82935 17.2888 3.76755 16.2271ZM9.40049 18.5673C8.90553 18.2435 8.24092 17.5928 7.61904 16.5843C7.36962 16.1799 7.14544 15.7491 6.94728 15.2971H9.40045V18.5673H9.40049ZM9.40049 14.1089H6.50224C6.15505 13.008 5.949 11.8178 5.89837 10.5941H9.40049V14.1089ZM9.40049 9.40592H5.89837C5.94896 8.1822 6.15501 6.99197 6.50224 5.89114H9.40049V9.40592ZM9.40049 4.70294H6.94732C7.14548 4.25091 7.36966 3.82012 7.61908 3.41567C8.24092 2.40715 8.90556 1.75649 9.40053 1.4327V4.70294H9.40049ZM17.7881 5.89114C18.3593 6.97134 18.6987 8.16357 18.7809 9.40592H15.2798C15.2333 8.1922 15.045 7.00525 14.7266 5.89114H17.7881ZM16.2217 3.77294C16.5153 4.06649 16.785 4.37747 17.0311 4.70298H14.3266C14.0621 4.02497 13.7463 3.38372 13.3815 2.79208C13.0955 2.32821 12.7882 1.90961 12.472 1.54567C13.8746 1.9545 15.1599 2.71118 16.2217 3.77294ZM10.5887 1.4327C11.0837 1.75653 11.7483 2.40715 12.3701 3.41567C12.6196 3.82012 12.8437 4.25091 13.0419 4.70294H10.5887V1.4327H10.5887ZM10.5887 5.89114H13.4869C13.8342 6.99201 14.0402 8.18228 14.0908 9.40592H10.5887V5.89114ZM14.0908 10.5941C14.0402 11.8178 13.8341 13.008 13.4869 14.1089H10.5887V10.5941H14.0908ZM10.5887 18.5673V15.2971H13.0419C12.8437 15.7491 12.6195 16.1799 12.3701 16.5843C11.7483 17.5929 11.0837 18.2435 10.5887 18.5673ZM16.2217 16.2271C15.1599 17.2889 13.8746 18.0455 12.472 18.4544C12.7881 18.0904 13.0955 17.6718 13.3815 17.208C13.7463 16.6163 14.0621 15.9751 14.3266 15.2971H17.0311C16.7851 15.6226 16.5153 15.9335 16.2217 16.2271ZM17.7881 14.1089H14.7266C15.045 12.9948 15.2333 11.8078 15.2798 10.5941H18.7809C18.6986 11.8364 18.3592 13.0287 17.7881 14.1089Z" fill="#8E9394"/>
</svg>
