<svg width="40" height="40" viewBox="0 0 40 40" fill="none" xmlns="http://www.w3.org/2000/svg">
<path fill-rule="evenodd" clip-rule="evenodd" d="M39.2 20.4444C39.2 19.0221 39.0667 17.6666 38.8444 16.3555H20V24.0888H30.7556C30.3111 26.5999 28.8889 28.711 26.7778 30.1332V35.1555H33.2444C37.0222 31.6666 39.2 26.5555 39.2 20.4444Z" fill="#4285F4"/>
<path fill-rule="evenodd" clip-rule="evenodd" d="M20 39.9998C25.4 39.9998 29.9333 38.1998 33.2444 35.1554L26.7778 30.1331C24.9778 31.3331 22.6889 32.0443 20 32.0443C14.8 32.0443 10.3778 28.5331 8.79997 23.7998H2.11108V28.9776C5.42219 35.5109 12.1778 39.9998 20 39.9998Z" fill="#34A853"/>
<path fill-rule="evenodd" clip-rule="evenodd" d="M8.8 23.8002C8.4 22.6002 8.17778 21.3113 8.17778 20.0002C8.17778 18.6891 8.4 17.4002 8.8 16.2002V11.0225H2.11111C0.777777 13.7113 0 16.778 0 20.0002C0 23.2225 0.777778 26.2891 2.13333 28.978L8.8 23.8002Z" fill="#FBBC05"/>
<path fill-rule="evenodd" clip-rule="evenodd" d="M20 7.95556C22.9333 7.95556 25.5777 8.95556 27.6444 10.9556L33.3777 5.22222C29.9111 1.97778 25.4 0 20 0C12.1777 0 5.42219 4.48889 2.1333 11.0222L8.82219 16.2C10.3777 11.4667 14.8 7.95556 20 7.95556Z" fill="#EA4335"/>
</svg>
