<svg id="iconliulan" viewBox="0 0 1536 1024"><path d="M768 100.010667c291.029333 0 537.6 167.978667 654.805333 411.989333H1536C1414.741333 212.010667 1115.605333 0 768 0S121.258667 212.010667 0 512h113.194667C230.4 267.989333 476.970667 100.010667 768 100.010667z m0 823.978666c-291.029333 0-537.6-167.978667-654.805333-411.989333H0c121.258667 299.989333 420.394667 512 768 512s646.741333-212.010667 768-512h-113.194667C1305.6 756.010667 1059.029333 923.989333 768 923.989333zM493.141333 512c0 151.978667 125.312 272 274.858667 272 153.6 0 274.858667-123.989333 274.858667-272S917.546667 240 768 240c-153.6 0-274.858667 120.021333-274.858667 272z m448.682667 0c0 96-76.8 171.989333-173.824 171.989333S594.176 608 594.176 512s76.8-171.989333 173.824-171.989333 173.824 75.946667 173.824 171.989333z"></path></svg>