<svg id="iconEquilibrium-type" viewBox="0 0 1024 1024"><path d="M861.00094 656.7c-18.1 0-36.2 3-53.3 8.9L618.00094 325.4c66.2-58.8 72.3-160.2 13.5-226.4-58.8-66.3-160.1-72.3-226.3-13.5-34.5 30.6-54.1 74.6-53.9 120.8-0.6 45.6 18.9 89.2 53.3 119.2L215.00094 665.6c-17.2-5.9-35.2-8.9-53.3-8.9C72.70094 656.4 0.30094 728.3 0.00094 817.3c-0.3 89 71.5 161.4 160.4 161.7 76.5 0.3 142.7-53.4 158.2-128.3h388.2C721.00094 926 787.30094 980.3 864.00094 979c88.3 0.1 160-71.5 160-159.8v-1.4c-0.8-89.4-73.6-161.4-163-161.1z m-349.7-549c52.8-0.4 95.9 42.1 96.3 94.9 0.4 52.8-42.1 96-94.8 96.4s-95.9-42.1-96.3-94.9v-1c1.2-52 42.9-93.9 94.8-95.4zM161.60094 913.4c-52.7-2.6-93.4-47.4-90.8-100.1 2.4-49.2 41.7-88.5 90.8-90.9 51.9 1.6 93.6 43.4 94.8 95.4-0.1 52.4-42.3 95.1-94.8 95.6z m542.3-128.3H318.70094c-5.9-34.8-23.7-66.5-50.4-89.6l195.6-340.2c15.2 5.1 31.4 7.2 47.4 6 18.1 0 36.2-3 53.3-8.9l186.7 346.2c-23.1 24.1-39.4 53.9-47.4 86.5zM861.00094 913.4c-52.7-2.6-93.4-47.4-90.8-100.1 2.4-49.2 41.7-88.5 90.8-90.9 52.7 2.6 93.4 47.4 90.8 100.1-2.3 49.2-41.6 88.5-90.8 90.9z" fill="rgba(0,0,0,0.38)"></path></svg>