<svg id="iconcommunity" viewBox="0 0 1024 1024"><path d="M945.152 945.152H512c-246.784 0-445.952-207.36-432.64-456.704 11.776-219.648 189.44-397.312 409.088-409.088 249.856-13.312 457.216 185.856 457.216 432.64v196.608c0 18.432 15.36 33.792 33.792 33.792h0.512c18.944 0 33.792-15.872 33.792-34.304v-189.952C1013.76 243.2 795.648 15.36 521.216 10.24 237.056 5.12 5.12 237.056 10.24 521.216c5.12 274.432 232.96 492.544 507.392 492.544h461.824a34.304 34.304 0 0 0 0-68.608h-34.304z"></path><path d="M649.728 504.832c0 28.672 23.04 51.712 51.712 51.712s51.712-23.04 51.712-51.712-23.04-51.712-51.712-51.712-51.712 23.552-51.712 51.712z m-188.928 0c0 28.672 23.04 51.712 51.712 51.712s51.712-23.04 51.712-51.712-23.04-51.712-51.712-51.712S460.8 476.672 460.8 504.832z m-188.928 0c0 28.672 23.04 51.712 51.712 51.712s51.712-23.04 51.712-51.712-23.04-51.712-51.712-51.712-51.712 23.552-51.712 51.712z"></path></svg>