<svg id="iconusers" viewBox="0 0 1024 1024"><path d="M647.26933333 542.60906667l0.16853334-0.25066667c-0.5856-0.33386667-1.25013333-0.49813333-1.8336-0.83413333-22.0832-12.4128-44.90986667-23.49333333-69.1552-31.9104 55.40586667-42.24533333 91.23413333-108.65066667 91.40053333-183.63946667 0.08213333-127.4784-103.15093333-231.13173333-230.62933333-231.2128-0.16746667 0-0.4192 0.08106667-0.58346667 0.08106667-0.16746667 0-0.41813333-0.08106667-0.58346667-0.08106667-127.47946667 0.08106667-230.71466667 103.73333333-230.63146666 231.2128 0.16746667 74.9888 35.99466667 141.39413333 91.40266666 183.63946667-24.24746667 8.41706667-47.0752 19.4976-69.1552 31.9104-0.58453333 0.336-1.25013333 0.50026667-1.8336 0.83413333l0.1664 0.25066667C97.44 615.7664 10.20266667 753.07733333 9.952 911.63413333c0 19.5776 15.83253333 35.4144 35.4944 35.4912 19.58186667 0 35.49546667-15.9136 35.49546667-35.40693333 0.08426667-142.56533333 84.8192-264.624 206.05226666-321.11573333 5.66506667-2.58133333 11.16373333-5.49866667 16.99733334-7.83573334 17.3312-6.9984 35.41013333-12.496 53.90933333-16.66346666 5.4144-1.24906667 10.82986667-2.16426667 16.33173333-3.16586667 20.32853333-3.5808 40.99413333-6.24746667 62.4064-6.16426667 21.4112-0.0832 42.0768 2.5824 62.40853334 6.16426667 5.49866667 1.00053333 10.91306667 1.9168 16.32853333 3.16586667 18.4992 4.16746667 36.57813333 9.66613333 53.9104 16.66346666 5.83146667 2.336 11.3312 5.2544 16.99946667 7.83573334 121.23093333 56.49173333 205.968 178.55146667 206.04906666 321.11573333 0 19.49333333 15.91253333 35.40693333 35.49333334 35.40693333 19.66293333-0.0768 35.49546667-15.9136 35.49546666-35.4912-0.25386667-158.5568-87.48906667-295.86773333-216.0544-369.02506666zM276.9952 325.6448c0.0832-88.0736 71.488-159.392 159.64266667-159.5616 88.15253333 0.16853333 159.55946667 71.48906667 159.64053333 159.5616 0.08533333 88.2336-71.32373333 159.8912-159.64053333 159.97226667-88.32-0.08106667-159.72586667-71.73973333-159.64266667-159.97226667z"></path><path d="M841.53386667 491.15946667l0.1664-0.16213334c-0.49386667-0.24746667-1.06986667-0.32853333-1.5616-0.6592-17.1776-9.69493333-35.01226667-18.32426667-53.91573334-24.8992 43.22986667-32.8736 71.25546667-84.73386667 71.41866667-143.08266666 0.08-99.52426667-80.4576-180.31253333-179.8176-180.3968-0.2464 0-0.49066667 0.08426667-0.57706667 0.08426666v0.6592c-14.7104 0-26.79146667 11.83146667-26.79146666 26.7904 0 14.79253333 12.08106667 26.78933333 26.79146666 26.78933334v1.3152c68.70613333 0.1664 124.4256 55.7216 124.4256 124.42773333 0.1632 68.7872-55.472 124.67413333-124.4256 124.75413333v0.66026667c-14.7104 0-26.79146667 11.99786667-26.79146666 26.95466667 0 14.62826667 12.08106667 26.7936 26.79146666 26.7936v1.06986666c16.76906667-0.08426667 32.79146667 2.05333333 48.65493334 4.84586667 4.352 0.7392 8.464 1.4816 12.73706666 2.38186667 14.464 3.20853333 28.59946667 7.5616 41.9936 13.0688 4.60586667 1.80586667 8.95893333 4.0256 13.39946667 6.08106666 94.5088 44.05013333 160.42026667 139.22133333 160.50133333 250.3296 0 15.29066667 12.41066667 27.61173333 27.86026667 27.61173334 15.28853333 0 27.53066667-12.40426667 27.53066667-27.61173334-0.16106667-123.6832-68.12586667-230.60586667-168.3904-287.80586666z"></path></svg>