<svg id="iconqukuailian" viewBox="0 0 1024 1024"><path d="M399.644243 612.748387l-204.8 168.794839z m259.303225 219.994839l-84.56258-198.193549z m156.572904-264.258065l-241.135484-23.452903zM643.091985 187.623226l-78.286452 251.045161z m-447.587097 0l275.489032 282.425806z m587.974193 357.078709h-86.874838a211.076129 211.076129 0 0 0 2.972903-33.032258 190.265806 190.265806 0 0 0-99.096774-167.143225l33.032258-112.970323a108.676129 108.676129 0 0 0 27.086451 3.303226A115.943226 115.943226 0 0 0 775.221017 117.264516a114.621935 114.621935 0 1 0-229.243871 0 117.594839 117.594839 0 0 0 71.349677 109.006452l-33.032258 110.658064a183.329032 183.329032 0 0 0-196.541935 33.032258L219.288114 198.193548a117.594839 117.594839 0 0 0 29.729032-79.277419A116.273548 116.273548 0 0 0 134.39521 0 116.273548 116.273548 0 0 0 19.773275 117.594839 116.273548 116.273548 0 0 0 134.39521 235.52 113.300645 113.300645 0 0 0 213.67263 203.148387l-5.945807 5.945807 171.107097 175.070967a193.569032 193.569032 0 0 0-11.230968 243.447742l-146.332903 120.23742a114.291613 114.291613 0 0 0-91.169032-46.245162 117.594839 117.594839 0 0 0 0 235.189678 115.943226 115.943226 0 0 0 114.621935-117.594839 117.925161 117.925161 0 0 0-14.203871-56.815484l148.314839-122.219355a182.338065 182.338065 0 0 0 136.092903 61.44 175.070968 175.070968 0 0 0 76.634839-17.176774L643.091985 804.005161a118.585806 118.585806 0 0 0-58.136775 102.4 114.952258 114.952258 0 1 0 114.952258-117.594838 114.952258 114.952258 0 0 0-41.620645 7.597419l-51.530322-119.907097A189.605161 189.605161 0 0 0 692.970694 561.548387h85.883871a117.264516 117.264516 0 1 0 4.624516-17.507097z"></path></svg>