<svg id="iconwangluo" viewBox="0 0 1024 1024"><path d="M991.413 479.494a32.5 32.5 0 0 0-32.5 32.5c0 204.472-138.173 377.27-325.946 430.207 70.65-70.724 152.323-202.498 152.323-433.407 0-398.745-243.384-501.182-253.746-505.332a36.625 36.625 0 0 0-7.675-1.987l-7.5-1.088a25 25 0 0 0-4.35-0.387C229.635 0.013 0 229.772 0 512.006S229.635 1024 512.056 1024c282.172 0 511.931-229.697 511.931-511.994a32.575 32.575 0 0 0-32.574-32.5M381.758 84.512c-41.662 44.1-85.7 109.374-113.849 203.523H125.5A448.57 448.57 0 0 1 381.744 84.511M108.474 319.684a16.362 16.362 0 0 0 5 0.9h145.598c-12.825 52.349-20.55 112.836-21 182.397H65.212a445.22 445.22 0 0 1 43.262-183.297m8.637 401.407a444.032 444.032 0 0 1-51.45-185.535H238.46c1.987 70.65 11.837 131.586 26.5 183.748H124.16a13.85 13.85 0 0 0-7.037 1.725m17.987 30.787h139.998c30.4 88.511 74.624 149.373 115.261 190.135a448.907 448.907 0 0 1-255.272-190.073m345.284 181.56c-37.562-26.25-96.512-80.898-135.936-181.56h135.936v181.56m0-214.134H332.883c-16.062-50.625-27.137-111.249-29.374-183.748h176.873v183.748m0-216.385H303.159c0.45-71.162 9.337-131.461 23.087-182.398h154.136V502.92m0-214.91H336.246c39.037-115.136 103.749-175.673 144.123-203.748V288.01m65-201.923c40.386 28.75 103.423 89.15 141.76 201.923H545.406V86.086m0 234.435h151.673c13.75 50.95 22.662 111.249 23.1 182.398H545.406V320.52m0 214.997h174.46c-2.237 72.5-13.25 133.186-29.312 183.748H545.406V535.518m0 396.47V751.992h133.623c-38.587 98.624-95.874 152.96-133.636 179.998m393.67-536.844a40.9 40.9 0 1 0 40.925-40.837 40.9 40.9 0 0 0-40.924 40.837m0-74.174a35 35 0 1 0-35-35 35 35 0 0 0 35 35m-66.687-106.174a25.787 25.787 0 1 0-25.787-25.787 25.787 25.787 0 0 0 25.787 25.787m0 0z"></path></svg>