<svg id="iconshiliangzhinengduixiang" viewBox="0 0 1024 1024"><path d="M510.889371 1021.778742C229.159798 1021.778742 0 792.618944 0 510.889371S229.159798 0 510.889371 0s510.889371 229.098096 510.889371 510.889371-229.159798 510.889371-510.889371 510.889371z m0-951.747409c-243.104362 0-440.91974 197.815377-440.91974 440.91974s197.815377 440.858038 440.91974 440.858038S951.809111 753.993733 951.809111 510.889371 753.993733 69.969631 510.889371 69.969631z m0 0"></path><path d="M785.461557 468.43866h-549.144372v-69.969631h443.017594l-36.774162-27.272114 41.64859-56.271873 122.045794 90.331164a35.015666 35.015666 0 0 1-20.731742 63.244156zM337.631236 706.8537l-122.045794-90.331164a35.015666 35.015666 0 0 1 20.731743-63.244156h549.144372v69.969632H342.443962l36.774163 27.272113z m0 0"></path></svg>