<svg id="iconsina" viewBox="0 0 1024 1024"><path d="M391.761852 482.081588c41.208379-2.257993 82.981257 0.564498 123.06064 9.596472 43.466373 10.16097 86.368247 27.095921 122.496141 54.191841 20.32194 15.241455 37.821389 33.869901 50.804851 55.320838 11.854465 20.32194 19.192944 44.030871 20.32194 67.739801 1.693495 34.434399-11.289967 67.739802-30.48291 95.400221-20.32194 28.789416-47.982359 51.933848-77.900772 69.997795-69.997795 41.772878-152.414553 58.707828-233.137817 56.449834-51.933848-1.693495-103.867696-12.418964-151.285557-33.8699-38.385888-18.063947-73.949283-43.466373-97.658214-79.029769-20.886439-29.918412-29.353914-68.3043-22.579933-104.432194 6.209482-36.127894 27.095921-68.3043 52.498346-93.706725 23.144432-23.144432 50.804851-41.208379 80.158765-55.885337 50.804851-24.837927 107.254686-38.385888 163.70452-41.772877z m-12.983462 81.85226c-18.628445 1.128997-37.256891 5.644983-55.320838 11.854465-38.385888 14.676957-72.820287 42.901874-92.01323 80.158765-10.725469 20.886439-16.370452 45.159868-14.676957 68.868799 1.693495 27.660419 13.54796 54.75634 32.176406 75.642778 15.241455 16.93495 34.434399 29.353914 55.320838 37.821389 47.417861 19.192944 103.303197 15.241455 149.027563-7.338478 36.692393-18.063947 67.739802-49.111356 82.416759-87.497244 10.16097-27.095921 11.289967-57.578831 2.257993-84.674752-6.77398-20.32194-19.192944-38.950386-34.998898-53.627343-32.740904-31.047409-79.594267-44.595369-124.189636-41.208379" fill="#FFFFFF"></path><path d="M413.212789 667.237045c10.16097-3.951488 23.708931 0.564498 27.660419 11.854465 3.951488 10.725469-4.515987 23.144432-15.241455 25.966924-9.596472 3.38699-22.015436-0.564498-25.966924-10.725468-4.515987-11.289967 3.38699-23.708931 13.54796-27.095921z m-88.061742 20.321941c13.54796-1.693495 27.660419 1.693495 38.385888 10.725468 9.031974 7.338479 14.676957 18.063947 16.370452 29.353914 2.257993 16.370452-4.515987 33.305402-16.370452 44.59537-8.467475 7.902977-19.757442 12.983462-31.047409 14.676957-12.983462 1.693495-26.531422-1.693495-36.692393-9.596472-9.031974-6.77398-15.241455-17.499449-16.93495-28.224918-2.822492-15.805954 2.822492-32.176406 13.54796-43.466372 8.467475-10.725469 20.32194-16.370452 32.740904-18.063947z" fill="#FFFFFF"></path><path d="M711.832415 72.820287c1.128997-0.564498 2.822492-0.564498 3.951488-0.564499h40.643881c3.38699 1.128997 7.338479 1.128997 10.725468 1.128997 5.080485 1.128997 10.16097 1.128997 15.241456 2.822492 3.951488 1.128997 9.031974 0.564498 12.983462 2.257993 8.467475 2.257993 16.93495 3.38699 24.837927 7.338479 18.063947 4.515987 34.998897 13.54796 51.933848 22.579933 6.209482 2.822492 10.725469 7.338479 16.93495 10.725469 3.38699 1.693495 6.209482 4.515987 9.596472 6.209482 10.16097 8.467475 21.450937 15.805954 29.918412 25.966924 2.257993 2.822492 5.644983 4.515987 7.902977 7.338478 3.38699 4.515987 8.467475 7.902977 11.289967 12.418964 2.257993 3.38699 5.080485 5.644983 7.902977 9.031973 9.596472 12.983462 19.192944 25.966924 25.966924 40.643881 5.080485 7.338479 7.902977 15.241455 11.289967 23.144433 3.951488 10.725469 8.467475 20.886439 11.289967 31.611907 5.644983 19.192944 9.596472 39.514884 10.725468 59.272326 1.693495 29.353914 0 58.707828-7.338478 86.932746-2.257993 8.467475-3.951488 18.063947-9.596472 24.837927-10.16097 13.54796-29.918412 19.192944-45.159868 11.289967-14.112459-6.209482-23.708931-22.015436-22.579933-37.256891 0-6.77398 3.38699-13.54796 4.515986-20.321941 0.564498-6.209482 2.822492-11.854465 2.822492-17.499448 2.822492-18.063947 2.257993-36.692393 0.564498-54.75634-2.257993-11.854465-3.951488-23.708931-7.902976-34.998897-2.257993-5.644983-3.38699-11.289967-5.644984-16.934951-4.515987-9.596472-8.467475-18.628445-14.112459-27.660419-3.951488-5.080485-6.77398-11.289967-11.289967-16.370452-3.38699-3.951488-6.77398-8.467475-10.16097-12.983462-8.467475-9.031974-16.93495-18.063947-27.09592-25.402425-10.16097-9.031974-22.015436-15.241455-33.305403-22.579934-5.080485-1.693495-9.596472-5.644983-15.241455-6.77398-6.77398-3.38699-13.54796-5.080485-20.321941-7.902977-7.338479-2.257993-14.676957-3.38699-22.015435-5.644984-10.16097-0.564498-20.32194-3.38699-31.047409-2.822491-9.031974 0.564498-18.628445-1.128997-27.660419 1.128996-7.902977 0-15.805954 1.128997-23.144432-2.822491-4.515987-2.257993-10.16097-4.515987-13.547961-9.031974-3.38699-2.257993-3.951488-6.77398-5.644983-9.596472-2.822492-3.951488-3.951488-9.031974-3.951488-13.54796 0-3.951488-0.564498-8.467475 0.564498-12.418964 3.38699-14.112459 16.370452-25.402426 31.047409-27.09592 5.644983-1.693495 10.16097-0.564498 14.112459-1.693495z" fill="#FFA21F"></path><path d="M718.041896 208.864388c9.596472-0.564498 19.757442 0 29.353914-0.564498 3.951488-0.564498 7.902977 1.128997 12.418964 1.693495 10.725469 1.128997 20.886439 5.080485 31.047409 8.467475 9.596472 4.515987 19.192944 8.467475 27.095921 15.241455 5.644983 3.38699 10.725469 7.902977 15.805953 11.289967 7.902977 8.467475 14.676957 16.93495 22.015436 25.966924 14.676957 22.015436 24.273429 47.417861 25.402425 73.949284 0.564498 9.596472 0.564498 18.628445-0.564498 28.224917-2.822492 12.983462-3.38699 27.660419-13.54796 37.821389-7.902977 6.77398-18.063947 10.725469-28.789416 9.031974-8.467475-1.693495-16.370452-5.644983-21.450937-12.983462-5.644983-6.77398-7.338479-16.370452-6.77398-24.837928 1.128997-5.644983 2.257993-10.725469 3.38699-16.370452 4.515987-29.918412-9.596472-61.53032-35.563396-77.900771-10.16097-6.209482-21.450937-10.725469-33.305402-12.418964-7.902977-0.564498-15.805954 0-23.708931 0-8.467475 0.564498-16.93495-3.951488-23.144432-9.031974-4.515987-5.080485-7.902977-10.725469-9.596472-17.499448-1.128997-8.467475-0.564498-18.063947 5.080485-25.402426 5.080485-7.902977 14.676957-13.54796 24.837927-14.676957z" fill="#FFA21F"></path><path d="M405.309813 215.638368c23.144432-1.693495 47.982359 2.257993 66.610804 16.934951 13.54796 10.16097 23.708931 25.402426 27.660419 41.772877 3.38699 10.725469 2.257993 22.579934 1.693495 33.869901-1.693495 11.854465-4.515987 23.708931-7.338478 34.998897-1.693495 8.467475-5.644983 16.93495-4.515987 25.402426 0.564498 3.38699 2.822492 6.209482 6.209482 6.209482 7.338479 0.564498 13.54796-2.822492 19.757442-5.644984 15.241455-7.338479 31.047409-14.676957 46.288864-21.450937 16.93495-6.77398 34.434399-13.54796 52.498347-18.063947 21.450937-5.080485 44.030871-8.467475 66.610805-5.644983 18.063947 2.257993 36.692393 9.596472 49.111356 23.70893 14.112459 15.241455 20.32194 36.692393 21.450937 57.578832 1.128997 22.015436-2.257993 44.595369-10.16097 64.917309-3.38699 8.467475-7.902977 17.499449-5.080486 27.095921 1.693495 6.209482 7.902977 10.16097 14.112459 11.289967 26.531422 4.515987 52.498346 14.112459 73.949283 29.918412 15.805954 11.854465 29.353914 27.660419 37.82139 45.724366 11.289967 23.708931 13.54796 50.804851 9.596472 76.771775-5.644983 34.434399-21.450937 66.610805-41.20838 94.835723-33.305402 46.853363-77.900772 84.110254-127.012128 112.899669-70.562293 41.208379-149.592062 66.046307-230.315325 77.900772-80.723264 10.725469-164.269019 7.902977-242.734289-15.241456-46.853363-14.112459-91.448732-36.127894-129.270121-67.739801-36.692393-28.224917-64.91731-66.610805-78.46527-110.077178-15.241455-46.288864-14.112459-96.529217-2.822492-143.947078 13.54796-56.449835 39.514884-109.512679 71.69129-157.495039C129.83462 394.584344 177.252481 343.214994 231.444322 299.748622c24.273429-19.192944 50.240353-37.256891 77.900772-51.933848 29.918412-15.805954 62.094818-28.789416 95.964719-32.176406z m-13.547961 266.44322c-57.014333 3.38699-113.464168 16.93495-164.269018 41.772877-29.353914 14.676957-57.014333 32.740904-80.158766 55.885337-25.402426 25.402426-45.724366 57.578831-52.498346 93.706725-6.77398 36.127894 1.693495 74.513782 22.579934 104.432194 23.708931 35.563396 59.272326 60.965821 97.658214 79.029769 47.417861 21.450937 99.351709 32.176406 151.285557 33.8699 80.723264 2.257993 163.70452-14.676957 233.137817-56.449834 29.918412-18.063947 57.578831-41.208379 77.900771-69.997795 19.757442-27.660419 32.176406-61.53032 30.482911-95.400221-0.564498-23.708931-8.467475-46.853363-20.32194-67.739801-12.983462-21.450937-31.047409-40.079383-50.804851-55.320838-36.127894-27.095921-78.46527-44.030871-122.496142-54.191841-39.514884-9.596472-81.287762-11.854465-122.496141-9.596472" fill="#E82014"></path><path d="M378.77839 563.933848c44.595369-3.38699 91.448732 10.16097 124.189636 40.643881 15.805954 14.676957 28.224917 33.305402 34.998898 53.627343 9.031974 27.095921 7.902977 57.578831-2.257993 84.674752-14.676957 38.385888-45.724366 69.433297-82.416759 87.497243-45.724366 22.579934-101.045204 26.531422-149.027563 7.338479-20.886439-8.467475-40.079383-20.886439-55.320838-37.821389-18.628445-20.886439-30.482911-47.417861-32.176406-75.642779-1.693495-23.708931 3.951488-47.982359 14.676957-68.868798 19.192944-37.256891 53.062845-64.91731 92.01323-80.158765 18.063947-5.644983 36.127894-10.16097 55.320838-11.289967z m34.434399 103.303197c-10.725469 3.38699-18.063947 15.805954-13.54796 26.531422 3.951488 9.596472 16.370452 14.112459 25.966924 10.725469 10.725469-2.822492 18.628445-14.676957 15.241455-25.966924-3.38699-10.725469-16.93495-15.241455-27.660419-11.289967z m-88.061742 20.321941c-12.418964 1.693495-24.273429 7.902977-32.740904 16.93495-10.725469 11.289967-16.370452 28.224917-13.54796 43.466373 1.693495 11.289967 7.902977 21.450937 16.93495 28.224917 10.16097 7.902977 23.708931 11.289967 36.692393 9.596472 11.854465-1.128997 22.579934-6.77398 31.047409-14.676957 11.854465-11.289967 18.628445-28.224917 16.370452-44.595369-1.693495-11.289967-7.338479-22.015436-16.370452-29.353914-10.725469-7.902977-24.837927-11.854465-38.385888-9.596472" fill=""></path></svg>