<svg id="iconqianbao-" viewBox="0 0 1173 1024"><path d="M803.059151 1024H199.215799A177.079822 177.079822 0 0 1 22.134978 846.920178v-603.179517a44.269955 44.269955 0 0 1 88.539911 0v603.179517a88.539911 88.539911 0 0 0 88.539911 88.539911h603.843351a281.779701 281.779701 0 0 0 281.556757-281.557756V205.004325a88.539911 88.539911 0 0 0-88.539911-88.539911H243.485755a44.269955 44.269955 0 0 1 0-88.539911h752.590242A177.079822 177.079822 0 0 1 1173.157818 205.004325v448.898008A370.540557 370.540557 0 0 1 803.059151 1024zM0.0005 66.660839a66.405433 66.405433 0 1 0 132.809866 0A66.405433 66.405433 0 1 0 0.0005 66.660839z"></path><path d="M985.008758 708.575693h-223.78417a188.14806 188.14806 0 0 1 0-376.295121h223.78417a188.14806 188.14806 0 0 1 0 376.296121zM761.224588 420.820483a99.60715 99.60715 0 0 0 0 199.215299h223.78417a99.60715 99.60715 0 0 0 0-199.215299z"></path></svg>