<svg id="iconnews" viewBox="0 0 1024 1024"><path d="M902.09493333 1019.12426667H121.90506667c-64.36586667 0-117.02933333-52.66346667-117.02933334-117.02933334V316.95253333c0-64.36586667 52.66346667-117.02826667 117.02933334-117.02826666H238.93333333v-78.0192C238.93333333 57.5392 291.59573333 4.87466667 355.9616 4.87466667h546.13333333c64.36586667 0 117.02933333 52.66346667 117.02933334 117.02933333v780.18986667c0 64.36586667-52.66346667 117.02933333-117.02933334 117.02933333zM121.90506667 277.94133333c-21.456 0-39.01013333 17.5552-39.01013334 39.01013334v585.1424c0 21.456 17.55413333 39.01013333 39.01013334 39.01013333h780.18986666c21.456 0 39.01013333-17.55413333 39.01013334-39.01013333V121.90506667c0-21.456-17.55413333-39.01013333-39.01013334-39.01013334h-546.13333333c-21.45493333 0-39.00906667 17.55413333-39.00906667 39.01013334V785.06666667c0 21.45493333-17.55413333 39.00906667-39.01013333 39.00906666A39.088 39.088 0 0 1 238.93333333 785.06666667V277.9424H121.90506667zM785.06666667 707.04746667H472.99093333a39.088 39.088 0 0 1-39.01013333-39.00906667c0-21.456 17.55413333-39.01013333 39.01013333-39.01013333H785.06666667c21.45493333 0 39.00906667 17.55413333 39.00906666 39.01013333S806.5216 707.04746667 785.06666667 707.04746667z m0-312.07573334H472.99093333a39.088 39.088 0 0 1-39.01013333-39.01013333c0-21.45493333 17.55413333-39.00906667 39.01013333-39.00906667H785.06666667c21.45493333 0 39.00906667 17.55413333 39.00906666 39.00906667S806.5216 394.97173333 785.06666667 394.97173333z"></path></svg>