<svg id="iconfuzhi" viewBox="0 0 1024 1024"><path d="M294.48704 238.56128c23.54176 0 42.69056-19.1488 42.69056-42.69056v-31.79008c0-18.12992 14.74048-32.88064 32.86016-32.88064h489.85088c18.14528 0 32.90624 14.75072 32.90624 32.88064v489.85088c0 18.12992-14.76096 32.8704-32.90624 32.8704h-28.20096c-23.54176 0-42.69056 19.1488-42.69056 42.69056s19.1488 42.69056 42.69056 42.69056h28.20096c65.21856 0 118.29248-53.03808 118.29248-118.25152V164.08064c0-65.2032-53.05856-118.26688-118.29248-118.26688H370.03264c-65.19296 0-118.24128 53.03808-118.24128 118.26688v31.79008c0.00512 23.54176 19.1488 42.69056 42.69568 42.69056z"></path><path d="M169.73824 978.19136h478.5408c68.33152 0 123.90912-55.5776 123.90912-123.90912V375.75168c0-68.33152-55.5776-123.91424-123.90912-123.91424H169.73824c-68.33664 0-123.91936 55.58272-123.91936 123.91424v478.53056c0 68.3264 55.58784 123.90912 123.91936 123.90912z m517.07904-123.90912c0 21.248-17.29024 38.53824-38.53312 38.53824H169.73824c-21.248 0-38.53824-17.29024-38.53824-38.53824V375.75168c0-21.23776 17.29024-38.528 38.53824-38.528h478.5408c21.24288 0 38.53312 17.29024 38.53312 38.528v478.53056z"></path></svg>