<svg id="iconcopy" viewBox="0 0 1024 1024"><path d="M853.333333 341.333333H469.333333c-72.533333 0-128 55.466667-128 128v384c0 72.533333 55.466667 128 128 128h384c72.533333 0 128-55.466667 128-128V469.333333c0-72.533333-55.466667-128-128-128z m42.666667 512c0 25.6-17.066667 42.666667-42.666667 42.666667H469.333333c-25.6 0-42.666667-17.066667-42.666666-42.666667V469.333333c0-25.6 17.066667-42.666667 42.666666-42.666666h384c25.6 0 42.666667 17.066667 42.666667 42.666666v384z" fill=""></path><path d="M213.333333 597.333333h-42.666666c-25.6 0-42.666667-17.066667-42.666667-42.666666V170.666667c0-25.6 17.066667-42.666667 42.666667-42.666667h384c25.6 0 42.666667 17.066667 42.666666 42.666667v42.666666c0 25.6 17.066667 42.666667 42.666667 42.666667s42.666667-17.066667 42.666667-42.666667v-42.666666c0-72.533333-55.466667-128-128-128H170.666667C98.133333 42.666667 42.666667 98.133333 42.666667 170.666667v384c0 72.533333 55.466667 128 128 128h42.666666c25.6 0 42.666667-17.066667 42.666667-42.666667s-17.066667-42.666667-42.666667-42.666667z" fill=""></path></svg>