<svg id="iconcall" viewBox="0 0 1024 1024"><path d="M2.606642 148.039569s-44.657487 229.667075 293.463485 567.788046l6.379641 6.379641 6.379641 6.379641c338.120971 338.120971 567.788046 293.463485 567.788046 293.463485 12.759282 0 44.657487-12.759282 51.037128-19.138923 0 0 51.037128-44.657487 82.935333-95.694615s-25.518564-133.97246-63.79641-165.870665c-70.176051-70.176051-133.97246-82.935333-159.491024-63.79641-12.759282 6.379641-63.79641 63.79641-63.79641 63.79641-12.759282 12.759282-31.898205 19.138923-44.657487 19.138923 0 0-89.314974 0-255.185639-159.491024-159.491024-165.870665-159.491024-255.185639-159.491024-255.185639 0-12.759282 6.379641-31.898205 19.138923-44.657487l63.79641-63.79641c25.518564-31.898205-12.759282-102.074256-63.79641-159.491024C251.41264 33.206031 232.273717 14.067108 181.23659 1.307826 117.44018-11.451456 8.986283 71.483877 2.606642 148.039569z"></path></svg>