<svg id="icontps" viewBox="0 0 1190 1024"><path d="M638.213953 342.92093l230.781024 392.263442a171.555721 171.555721 0 0 0-36.244837 61.701954l-475.25507-1.024a173.317953 173.317953 0 0 0-53.224186-76.371349l225.375256-382.999814a187.844465 187.844465 0 0 0 65.655069 12.002232c14.907535 0 29.124465-2.214698 42.888931-5.572465m368.925767 332.585675c-18.027163 0-35.387535 2.619535-51.842977 7.287069l-228.399628-388.167441c31.910698-31.243907 51.938233-73.346977 51.938233-120.379535 0-96.256-82.15814-174.246698-183.510326-174.246698s-183.486512 77.990698-183.486511 174.246698c0 38.507163 13.526326 73.704186 35.911442 102.471442L211.658419 677.935628a172.365395 172.365395 0 0 0-28.148093-2.429023C82.15814 675.506605 0 753.497302 0 849.753302S82.15814 1024 183.510326 1024c86.016 0 157.696-56.272372 177.580651-132.096l468.801488 1.024c20.24186 75.299721 91.683721 131.072 177.294884 131.072C1108.539535 1024 1190.697674 946.009302 1190.697674 849.753302s-82.229581-174.246698-183.581767-174.246697"></path></svg>