<svg id="iconic-twiter" viewBox="0 0 1024 1024"><path d="M826.9848938 362.90823174c0-7.42040634-0.1429081-14.75661278-0.47121048-22.04260827 31.71941757-23.6346817 59.23888207-53.21974754 81.00494385-87.07351684a311.4994812 311.4994812 0 0 1-93.22551728 25.50484657c33.52701187-20.63206673 59.23888207-53.62838745 71.38838769-93.22551727-31.39188767 19.03767586-66.11623764 32.64870644-103.03596497 39.74081039-29.58197593-33.66065025-71.79702758-55.10072708-118.46540451-55.89637756-89.62886811-1.48238182-162.2856617 74.2596817-162.2856617 169.15143012 0 13.48743438 1.41054153 26.56854629 4.20999527 39.19930459-134.96858597-8.68494987-254.56953049-78.9393425-334.57180023-184.84814644-13.95941734 25.3742981-21.96922302 55.0288868-21.96922302 86.80932999 0 60.10791779 28.65268708 113.53082657 72.18558311 145.05558014-26.65042878-1.20506287-51.61608697-9.27743912-73.5134697-22.51150132v2.20773698c0 84.0083313 55.95817566 154.39481736 130.20858765 170.81766127-13.61180305 3.8716507-27.96904564 5.88626862-42.73492813 5.81365586a147.96163559 147.96163559 0 0 1-30.51280975-3.34173203c20.63129425 68.84307862 80.59398652 119.13977623 151.583004 120.8152771-55.55880547 46.06816292-125.5466938 73.58530999-201.53208733 73.39296341-13.10119629 0-26.04789734-0.87907791-38.7412262-2.47192382 71.84878349 49.28398132 157.1355629 77.98919677 248.81844521 77.98919678 298.44617843 0.07106781 461.65958405-259.70031739 461.65958404-485.08646965z"></path></svg>