<svg id="iconwakuang" viewBox="0 0 1024 1024"><path d="M940.544 817.152c-55.296-50.688-147.968-135.68-305.152-286.208C524.8 425.472 441.856 346.112 380.416 286.72c126.976-113.664 276.992-198.144 427.52-231.424l91.648-20.48L807.936 15.36c-46.08-10.24-93.696-15.36-140.8-15.36-161.28 0-309.76 57.856-424.96 153.088-46.08-44.032-47.616-44.032-57.856-44.032-29.696 0-75.264 45.568-75.264 75.264 0 10.24 0 11.776 44.032 57.856C57.856 357.888 0 505.856 0 667.136c0 46.592 5.12 94.208 15.36 140.8l19.968 92.16 20.48-92.16c33.28-150.528 117.76-300.544 231.424-427.52 58.88 61.44 138.752 144.384 244.224 254.976 150.016 157.184 235.008 249.856 286.208 305.152 70.656 76.8 76.288 83.456 95.232 83.456 29.184 0 111.616-82.432 111.616-111.616-0.512-18.944-6.656-24.576-83.968-95.232zM152.064 180.736c5.12-9.216 19.968-24.576 28.672-29.184 5.632 4.608 15.36 14.336 30.72 28.672-10.752 9.728-20.992 19.968-30.72 30.72-14.848-14.848-24.064-24.576-28.672-30.208z m106.496 170.496c-95.744 106.496-172.032 228.352-216.576 353.792-1.024-12.8-1.024-25.088-1.024-37.888C40.96 517.12 93.696 379.904 181.76 271.872 190.464 261.12 199.68 250.88 208.896 240.64c10.24-10.752 20.992-21.504 31.744-31.744 10.24-9.216 20.48-18.432 31.232-27.136C379.904 94.208 517.632 40.96 667.136 40.96c12.8 0 25.088 0.512 37.888 1.024-125.44 44.544-247.296 120.832-353.792 216.576-10.24 9.216-19.968 18.944-29.696 28.16-11.776 11.264-23.04 22.528-34.304 34.304-9.728 10.24-19.456 19.968-28.672 30.208z m654.336 630.784c-8.704-6.656-29.696-30.208-65.536-68.608-50.688-55.296-136.192-148.48-286.72-306.176-106.496-112.128-186.368-195.584-245.76-257.024 11.776-12.288 23.552-24.064 35.328-35.328 61.44 59.392 144.896 139.264 257.024 246.272 157.696 150.528 250.368 235.52 306.176 286.72 38.912 35.84 61.952 56.832 68.608 65.536-9.728 16.384-52.224 58.88-69.12 68.608z"></path><path d="M147.968 930.816L111.616 1003.52l-36.352-72.704 36.352-73.216zM912.384 111.616L876.032 184.32l36.352 72.704 36.352-72.704zM766.976 366.592l-36.352 72.704 36.352 72.704 36.352-72.704zM257.024 621.056l-54.272 109.568L257.024 839.68l54.784-109.056z" fill="#1B31FF"></path></svg>