<svg id="iconcopy1" viewBox="0 0 1024 1024"><path d="M138.688 258.112A10.624 10.624 0 0 0 128 268.736v616.832c0 5.888 4.8 10.624 10.688 10.624h618.624a10.624 10.624 0 0 0 10.688-10.624V268.736a10.624 10.624 0 0 0-10.688-10.624H138.688zM482.112 64h403.2C926.592 64 960 97.28 960 138.432v595.456a32 32 0 0 1-64 0V138.432a10.624 10.624 0 0 0-10.688-10.624h-403.2a32.448 32.448 0 0 1-2.496 0.128H288.384a32 32 0 1 1 0-64h191.232L482.112 64zM138.688 194.304h618.624c41.28 0 74.688 33.28 74.688 74.432v616.832c0 41.088-33.408 74.432-74.688 74.432H138.688C97.408 960 64 926.72 64 885.568V268.736c0-41.152 33.408-74.432 74.688-74.432z" fill="#383E47"></path></svg>