<svg id="iconjinrijiaoyiliang" viewBox="0 0 1024 1024"><path d="M400.896 53.248l-4.096-2.048c8.192 10.752 7.68 5.632 4.096 2.048z"></path><path d="M331.776 642.56h35.84c4.096 0 6.144 0 6.656 4.096 6.656 18.944 25.6 30.72 45.568 27.648 24.064-2.048 40.448-16.384 39.424-34.304s-18.432-30.208-41.472-30.208c-28.672 0.512-56.832-7.168-81.408-22.016-41.472-26.624-57.344-61.44-43.008-100.864S343.04 423.424 396.288 416.768c74.24-9.216 141.824 31.744 147.968 88.576 1.024 7.68 1.024 7.68-9.216 7.68H465.92c-4.608 0-6.144-0.512-7.168-4.608-6.144-18.432-24.064-30.208-43.52-27.648-18.944-1.536-36.352 10.24-41.472 28.672-0.512 17.92 13.312 33.28 31.232 34.816 10.24 2.048 20.992 1.024 31.744 2.56 60.928 7.68 107.52 47.616 108.032 94.208s-43.52 89.088-105.472 97.28c-74.752 10.24-145.408-31.232-151.04-89.088 0-5.632 1.024-7.168 8.704-6.656h34.816z m105.472-288.256v29.184c0 3.584 0 5.12-4.608 5.12H373.76c-3.072 0-4.608-0.512-4.096-4.096V325.12c0-3.072 0-4.096 4.096-4.096h59.392c4.096 0 4.608 1.536 4.096 4.608v28.672z m-33.792 493.056h-29.184c-3.072 0-4.608 0-4.608-4.096v-59.392c0-3.072 0.512-4.096 4.096-4.096h59.904c3.072 0 4.096 1.024 4.096 4.096v59.392c0 4.096-1.536 4.096-4.608 4.096h-29.696z"></path><path d="M807.424 597.504V510.976c0-139.264-97.28-241.664-289.792-304.128l105.472-142.336c9.216-12.288 6.656-29.696-5.632-38.912s-29.696-6.656-38.912 5.632l-128.512 174.08c-9.216 12.288-6.656 29.696 6.144 38.912 2.56 2.048 5.632 3.584 8.704 4.608 193.536 54.272 287.232 140.288 287.232 262.144v85.504c18.432 2.56 36.864 2.048 55.296 1.024z"></path><path d="M600.576 937.984H203.264c-114.176-7.168-128.512-62.464-128.512-110.08V506.88c0-92.672 70.144-237.568 263.68-257.024 6.144-0.512 11.776-3.072 16.384-7.68 1.024-0.512 1.536-0.512 2.56-1.024 12.8-8.704 15.872-26.112 7.168-38.4l-102.4-147.456H450.56c15.36 0 27.648-12.288 27.648-27.648C478.208 12.288 465.92 0 450.56 0H208.896c-15.36 0-28.16 12.288-28.16 27.136 0 5.632 1.536 11.264 5.12 16.384l108.544 156.672C235.52 212.992 180.224 238.592 132.096 275.456 59.904 330.24 17.92 416.256 18.944 506.88v321.024c0 70.656 31.744 156.672 181.76 165.376h399.872c43.52 0 78.336-6.144 105.984-15.872-18.432-15.872-39.424-28.16-57.856-42.496-13.824 2.048-29.696 3.072-48.128 3.072z"></path><path d="M782.848 579.584c-122.88 0-222.208 99.328-222.208 222.208s99.328 222.208 222.208 222.208 222.208-99.328 222.208-222.208c0-122.368-99.84-222.208-222.208-222.208z m64 134.144h-51.712V926.72c0 9.216-5.12 13.824-15.36 13.824s-15.36-4.608-15.36-13.824v-212.992h-48.128c-7.68 1.024-14.336-4.608-15.36-11.776v-3.584c0-9.216 5.12-13.824 15.36-13.824h126.976c10.24 0 15.36 4.608 15.36 13.824 1.024 7.68-4.096 14.336-11.776 15.36z"></path></svg>