<svg id="iconexchange" viewBox="0 0 1024 1024"><path d="M1021.952 926.208c0 22.528-18.432 40.96-40.96 40.96H41.984c-22.016 0-40.448-17.92-40.448-40.448v-0.512c0.512-22.528 18.944-40.96 41.472-40.96h937.984c23.04 0 40.96 18.432 40.96 40.96zM185.344 783.36c-22.528 0-40.96-18.432-40.96-40.96V456.704c0-22.528 18.432-40.448 40.448-40.448 22.528 0 40.96 18.432 40.96 40.96V742.4c0.512 22.528-17.92 40.96-40.448 40.96z m653.312 0c-22.528 0-40.96-18.432-40.96-40.96V252.416c0-22.528 17.92-40.448 40.448-40.448h0.512c22.528 0 40.96 18.432 40.96 40.96V742.4c-0.512 22.528-18.432 40.96-40.96 40.96z m-326.656 0c-22.528 0-40.96-18.432-40.96-40.96V89.088c0-22.016 17.92-40.448 40.448-40.448h0.512c22.528 0.512 40.96 18.944 40.96 41.472V742.4c0 22.528-18.432 40.96-40.96 40.96z"></path></svg>