<svg width="32" height="32" viewBox="0 0 32 32" fill="none" xmlns="http://www.w3.org/2000/svg">
<path d="M16 0C7.1619 0 0 7.1619 0 16C0 21.1048 2.3619 25.7524 6.4 28.8C9.21905 30.8571 12.4952 32 16 32C19.5048 32 22.781 30.9333 25.6 28.8C29.6381 25.7524 32 21.1048 32 16C32 7.1619 24.8381 0 16 0ZM1.52381 16.7619H7.61905C7.69524 18.8952 7.92381 20.9524 8.38095 22.8571H3.27619C2.20952 21.0286 1.67619 18.8952 1.52381 16.7619ZM16.7619 7.61905V1.6C18.7429 2.05714 20.419 4.34286 21.5619 7.61905H16.7619ZM22.019 9.14286C22.4762 10.9714 22.781 13.0286 22.8571 15.2381H16.7619V9.14286H22.019ZM15.2381 1.6V7.61905H10.4381C11.581 4.34286 13.2571 2.13333 15.2381 1.6ZM15.2381 9.14286V15.2381H9.14286C9.21905 13.0286 9.52381 10.9714 9.98095 9.14286H15.2381ZM7.61905 15.2381H1.52381C1.67619 13.0286 2.20952 10.9714 3.2 9.14286H8.38095C7.92381 10.9714 7.69524 13.0286 7.61905 15.2381ZM9.14286 16.7619H15.2381V22.8571H9.98095C9.52381 20.9524 9.21905 18.8952 9.14286 16.7619ZM15.2381 24.381V30.4C13.8667 30.0952 12.7238 28.8762 12.0381 27.8095C11.4286 26.8952 10.8952 25.6762 10.4381 24.4571H15.2381V24.381ZM16.7619 30.4V24.381H21.5619C21.1048 25.6762 20.5714 26.819 19.9619 27.8095C19.2 28.8 18.1333 30.019 16.7619 30.4ZM16.7619 22.8571V16.7619H22.8571C22.781 18.8952 22.5524 20.9524 22.019 22.8571H16.7619ZM24.381 16.7619H30.4762C30.4 18.8952 29.7905 21.0286 28.8 22.8571H23.619C24.0762 20.9524 24.3048 18.8952 24.381 16.7619ZM24.381 15.2381C24.3048 13.0286 24.0762 10.9714 23.619 9.14286H28.8C29.7905 10.9714 30.4 13.0286 30.4762 15.2381H24.381ZM27.8095 7.61905H23.1619C22.4762 5.33333 21.4857 3.50476 20.2667 2.13333C23.3143 3.12381 25.981 5.02857 27.8095 7.61905ZM11.7333 2.13333C10.5143 3.50476 9.52381 5.33333 8.8381 7.61905H4.19048C6.01905 5.02857 8.68571 3.12381 11.7333 2.13333ZM4.19048 24.381H8.8381C9.37143 25.981 9.98095 27.4286 10.819 28.6476C11.1238 29.1048 11.4286 29.4857 11.7333 29.8667C10.1333 29.4095 8.68571 28.6476 7.31429 27.581C6.09524 26.6667 5.02857 25.6 4.19048 24.381ZM24.6857 27.581C23.3143 28.5714 21.8667 29.3333 20.2667 29.7905C20.5714 29.4095 20.8762 29.0286 21.181 28.5714C21.9429 27.3524 22.6286 25.9048 23.1619 24.3048H27.8095C26.9714 25.6 25.9048 26.6667 24.6857 27.581Z" fill="white"/>
</svg>
