<svg width="28" height="28" viewBox="0 0 28 28" fill="none" xmlns="http://www.w3.org/2000/svg">
<path opacity="0.08" d="M25.375 0H2.625C1.17525 0 0 1.17525 0 2.625V25.375C0 26.8247 1.17525 28 2.625 28H25.375C26.8247 28 28 26.8247 28 25.375V2.625C28 1.17525 26.8247 0 25.375 0Z" fill="white"/>
<path d="M6.68171 9.36436C6.70508 9.13345 6.61702 8.90523 6.4446 8.74982L4.68828 6.63404V6.31799H10.1417L14.3569 15.5624L18.0627 6.31799H23.2614V6.63404L21.7598 8.07382C21.6303 8.1725 21.5661 8.33469 21.5929 8.49522V19.0741C21.5661 19.2346 21.6303 19.3968 21.7598 19.4955L23.2263 20.9353V21.2513H15.8497V20.9353L17.369 19.4604C17.5182 19.3111 17.5182 19.2672 17.5182 19.039V10.4881L13.2943 21.2162H12.7235L7.80576 10.4881V17.6782C7.76475 17.9805 7.86515 18.2848 8.07799 18.5035L10.0539 20.9002V21.2162H4.45117V20.9002L6.42704 18.5035C6.63833 18.2845 6.73287 17.9781 6.68171 17.6782V9.36436Z" fill="white"/>
</svg>
