<svg width="40" height="46" viewBox="0 0 40 46" fill="none" xmlns="http://www.w3.org/2000/svg">
<path d="M0.5 43.25V2.75C0.5 1.505 1.505 0.5 2.75 0.5H37.25C38.495 0.5 39.5 1.505 39.5 2.75V43.25C39.5 44.495 38.495 45.5 37.25 45.5H2.75C1.505 45.5 0.5 44.495 0.5 43.25Z" fill="#313333"/>
<path d="M32 6.5H8V9.5H32V6.5Z" fill="white"/>
<path d="M26 14H8V17H26V14Z" fill="white"/>
<path d="M30.245 23.1797L15.74 33.7097L10.37 27.9497L8.63 29.3447L14.06 37.2947L15.14 38.8547L16.64 37.5947L31.64 24.9497L30.245 23.1797Z" fill="#59BF9C"/>
</svg>
