<svg width="42" height="42" viewBox="0 0 42 42" fill="none" xmlns="http://www.w3.org/2000/svg">
<path d="M0 21C0 9.405 9.405 0 21 0C32.595 0 42 9.405 42 21C42 32.595 32.595 42 21 42C15.825 42 0 42 0 42C0 42 0 27.435 0 21Z" fill="#313333"/>
<path d="M21.3301 9.64441L24.1201 15.2994C24.3451 15.7494 24.7651 16.0494 25.2451 16.1244L31.4851 17.0244C31.8001 17.0694 31.9201 17.4444 31.6951 17.6694L27.1801 22.0644C26.8201 22.4094 26.6701 22.9044 26.7451 23.3994L27.8101 29.6094C27.8701 29.9094 27.5401 30.1494 27.2701 29.9994L21.6901 27.0594C21.2551 26.8344 20.7301 26.8344 20.2951 27.0594L14.7151 29.9994C14.4451 30.1494 14.1151 29.9094 14.1751 29.6094L15.2401 23.3994C15.3301 22.9194 15.1651 22.4094 14.8051 22.0644L10.2901 17.6694C10.0651 17.4444 10.2001 17.0694 10.5001 17.0244L16.7401 16.1244C17.2351 16.0494 17.6551 15.7494 17.8651 15.2994L20.6551 9.64441C20.8051 9.35941 21.1951 9.35941 21.3301 9.64441Z" fill="#F1CF1B"/>
</svg>
