<svg width="40" height="46" viewBox="0 0 40 46" fill="none" xmlns="http://www.w3.org/2000/svg">
<path d="M0.5 43.25V2.75C0.5 1.505 1.505 0.5 2.75 0.5H37.25C38.495 0.5 39.5 1.505 39.5 2.75V43.25C39.5 44.495 38.495 45.5 37.25 45.5H2.75C1.505 45.5 0.5 44.495 0.5 43.25Z" fill="#313333"/>
<path d="M20 4.10059C12.545 4.10059 6.5 10.1456 6.5 17.6006C6.5 22.9406 9.605 27.5306 14.09 29.7206V15.5006C14.09 14.9606 14.435 14.4806 14.96 14.3006C15.485 14.1206 16.04 14.3006 16.37 14.7356L20 19.5806L23.63 14.7356C23.96 14.3006 24.53 14.1206 25.04 14.3006C25.55 14.4806 25.91 14.9606 25.91 15.5006V29.7356C30.395 27.5456 33.5 22.9406 33.5 17.6006C33.5 10.1456 27.455 4.10059 20 4.10059Z" fill="#F09C3A"/>
<path d="M24.2149 16.7607L21.0049 21.0357C20.7649 21.3507 20.3899 21.5457 19.9999 21.5457C19.5949 21.5457 19.2349 21.3657 18.9949 21.0357L15.7849 16.7607V30.4257C17.1199 30.8607 18.5299 31.1007 19.9999 31.1007C21.4699 31.1007 22.8949 30.8607 24.2149 30.4257V16.7607Z" fill="#F09C3A"/>
<path d="M24.5 33.6504H15.5V38.1504H24.5V33.6504Z" fill="white"/>
<path d="M22.265 39.6504C22.265 40.8954 21.245 41.9004 20.015 41.9004C18.77 41.9004 17.765 40.8954 17.765 39.6504" fill="white"/>
</svg>
