<svg width="16" height="16" viewBox="0 0 16 16" fill="none" xmlns="http://www.w3.org/2000/svg">
<path d="M7.8938 0.000727046C3.47589 0.0598575 -0.0573272 3.6896 0.00145539 8.10768C0.0605858 12.5239 3.68998 16.0581 8.10772 15.9993C12.5248 15.9399 16.0587 12.3101 15.9999 7.89238C15.9408 3.47586 12.3112 -0.0582295 7.8938 0.000727046ZM7.87015 12.8696L7.82598 12.8689C7.14563 12.8487 6.66598 12.3475 6.68528 11.6772C6.70424 11.0185 7.19554 10.5402 7.85346 10.5402L7.89293 10.5409C8.59224 10.5616 9.0665 11.0578 9.04685 11.7473C9.02737 12.408 8.54372 12.8696 7.87015 12.8696ZM10.7319 7.18977C10.5719 7.41707 10.2201 7.69933 9.77676 8.04473L9.28859 8.38177C9.02059 8.59012 8.85885 8.78612 8.79815 8.97899C8.75033 9.13081 8.72685 9.17099 8.72267 9.47986L8.72198 9.55829H6.85798L6.86337 9.40055C6.88615 8.7522 6.90215 8.37081 7.17085 8.05568C7.59241 7.56073 8.52233 6.96194 8.5618 6.93655C8.69502 6.8362 8.80737 6.72194 8.89102 6.59986C9.08667 6.33012 9.17328 6.11777 9.17328 5.90907C9.17328 5.61951 9.08737 5.35168 8.91746 5.11325C8.75415 4.88316 8.44389 4.76664 7.99519 4.76664C7.55015 4.76664 7.24546 4.90786 7.06319 5.1976C6.87572 5.49551 6.78093 5.80838 6.78093 6.12803V6.20751H4.85902L4.8625 6.12455C4.91206 4.94733 5.33224 4.09968 6.11085 3.60507C6.60006 3.29012 7.20876 3.13047 7.91902 3.13047C8.84876 3.13047 9.63363 3.35638 10.2515 3.80194C10.8776 4.25342 11.1952 4.9296 11.1952 5.81168C11.1952 6.30507 11.0394 6.76855 10.7319 7.18977Z" fill="#171D1F"/>
</svg>
