<svg width="28" height="28" viewBox="0 0 28 28" fill="none" xmlns="http://www.w3.org/2000/svg">
<path opacity="0.08" d="M25.375 0H2.625C1.17525 0 0 1.17525 0 2.625V25.375C0 26.8247 1.17525 28 2.625 28H25.375C26.8247 28 28 26.8247 28 25.375V2.625C28 1.17525 26.8247 0 25.375 0Z" fill="white"/>
<path d="M17.6071 17.0456C16.7025 17.0456 15.965 16.316 15.965 15.4209C15.965 14.5259 16.7025 13.7961 17.6071 13.7961C18.5117 13.7961 19.2492 14.5259 19.2492 15.4209C19.2492 16.316 18.5117 17.0456 17.6071 17.0456ZM17.8971 19.7121C16.7751 20.8192 14.6287 20.9066 13.9985 20.9066C13.3681 20.9066 11.2186 20.8192 10.0997 19.7121C9.93279 19.5469 9.93279 19.2818 10.0997 19.1164C10.2668 18.9512 10.5347 18.9512 10.7018 19.1164C11.4077 19.8151 12.9174 20.0646 13.9985 20.0646C15.0764 20.0646 16.5891 19.8151 17.2952 19.1164C17.4621 18.9512 17.73 18.9512 17.8971 19.1164C18.0611 19.2818 18.0611 19.5469 17.8971 19.7121ZM8.74128 15.421C8.74128 14.526 9.4788 13.7962 10.3834 13.7962C11.288 13.7962 12.0255 14.526 12.0255 15.421C12.0255 16.316 11.288 17.0459 10.3834 17.0459C9.4788 17.0456 8.74128 16.316 8.74128 15.421ZM24.5 13.7962C24.5 12.5394 23.4726 11.5228 22.2024 11.5228C21.5815 11.5228 21.0203 11.7659 20.6076 12.1621C19.038 11.0394 16.8729 10.3159 14.4617 10.2317L15.5081 5.35726L18.9278 6.07776C18.9688 6.93853 19.6809 7.62465 20.5604 7.62465C21.468 7.62465 22.2025 6.89794 22.2025 5.99976C22.2025 5.10171 21.468 4.375 20.5604 4.375C19.9142 4.375 19.3627 4.74609 19.0948 5.28244L15.2748 4.47786C15.1677 4.45604 15.0574 4.47494 14.9659 4.53404C14.8747 4.59327 14.8115 4.68369 14.7896 4.78972C14.7896 4.78972 13.6423 10.1974 13.6423 10.2286C11.1871 10.2909 8.98084 11.0176 7.3861 12.1559C6.97325 11.763 6.41531 11.5228 5.79764 11.5228C4.52744 11.5228 3.5 12.5424 3.5 13.7962C3.5 14.7193 4.05781 15.5146 4.85839 15.87C4.82378 16.0947 4.80481 16.3253 4.80481 16.5593C4.80481 20.0582 8.92098 22.8932 13.9985 22.8932C19.0758 22.8932 23.192 20.0582 23.192 16.5593C23.192 16.3284 23.1731 16.1008 23.1385 15.8763C23.9359 15.5208 24.5 14.7256 24.5 13.7962Z" fill="white"/>
</svg>
