<svg width="48" height="48" viewBox="0 0 48 48" fill="none" xmlns="http://www.w3.org/2000/svg">
<path d="M48 24.9086V23.0743C48 22.6286 47.6571 22.2514 47.2114 22.2171L45.1714 22.08C44.76 22.0457 44.4514 21.7371 44.4 21.3257C44.28 20.4171 44.1086 19.5086 43.8686 18.6343C43.7657 18.24 43.9371 17.8286 44.2971 17.6571L46.1143 16.7486C46.5086 16.5429 46.6971 16.0629 46.5257 15.6514L45.8229 13.9543C45.6514 13.5429 45.1886 13.32 44.76 13.4743L42.8229 14.1257C42.4286 14.2629 42.0171 14.0914 41.8114 13.7314C41.3486 12.9429 40.8514 12.1714 40.3029 11.4514C40.0629 11.1257 40.0629 10.68 40.32 10.3714L41.6571 8.82857C41.9486 8.48571 41.9314 7.97143 41.6229 7.66286L40.32 6.36C39.9943 6.03429 39.4971 6.01714 39.1543 6.32571L37.6114 7.66286C37.3029 7.93714 36.8571 7.93714 36.5314 7.68C35.8114 7.13143 35.04 6.61714 34.2514 6.15429C33.8914 5.94857 33.7371 5.53714 33.8571 5.14286L34.5086 3.20571C34.6457 2.77714 34.44 2.31429 34.0286 2.14286L32.3314 1.44C31.92 1.26857 31.44 1.44 31.2343 1.85143L30.3429 3.70286C30.1543 4.06286 29.76 4.23429 29.3657 4.13143C28.4914 3.89143 27.6 3.72 26.6743 3.6C26.2629 3.54857 25.9543 3.22286 25.92 2.82857L25.7829 0.788571C25.7486 0.342857 25.3714 0 24.9257 0H23.0914C22.6457 0 22.2686 0.342857 22.2343 0.788571L22.0971 2.82857C22.0629 3.24 21.7543 3.54857 21.3429 3.6C20.4343 3.72 19.5257 3.89143 18.6514 4.13143C18.2571 4.23429 17.8457 4.06286 17.6743 3.70286L16.7657 1.88571C16.56 1.49143 16.08 1.30286 15.6686 1.47429L13.9714 2.17714C13.56 2.34857 13.3371 2.81143 13.4914 3.24L14.1429 5.17714C14.2629 5.55429 14.0914 5.96571 13.7314 6.17143C12.9429 6.63429 12.1886 7.13143 11.4686 7.69714C11.1429 7.93714 10.6971 7.93714 10.3886 7.68L8.84571 6.34286C8.50286 6.05143 7.98857 6.06857 7.68 6.37714L6.37714 7.68C6.06857 7.98857 6.05143 8.50286 6.34286 8.84571L7.68 10.3886C7.93714 10.6971 7.93714 11.1429 7.69714 11.4514C7.14857 12.1886 6.63429 12.9429 6.17143 13.7314C5.96571 14.0914 5.55429 14.2457 5.16 14.1257L3.24 13.4914C2.81143 13.3371 2.34857 13.56 2.17714 13.9714L1.47429 15.6686C1.30286 16.08 1.47429 16.56 1.88571 16.7657L3.70286 17.6743C4.06286 17.8629 4.23429 18.2743 4.13143 18.6514C3.89143 19.5257 3.72 20.4171 3.6 21.3257C3.54857 21.7371 3.22286 22.0457 2.82857 22.08L0.788571 22.2171C0.342857 22.2686 0 22.6286 0 23.0914V24.9257C0 25.3714 0.342857 25.7486 0.788571 25.7829L2.82857 25.92C3.24 25.9543 3.54857 26.2629 3.6 26.6743C3.72 27.5829 3.89143 28.4914 4.13143 29.3486C4.23429 29.7429 4.06286 30.1543 3.70286 30.3257L1.88571 31.2514C1.49143 31.4571 1.30286 31.9371 1.47429 32.3486L2.17714 34.0457C2.34857 34.4571 2.81143 34.68 3.24 34.5257L5.17714 33.8743C5.57143 33.7371 5.98286 33.9086 6.18857 34.2686C6.65143 35.0571 7.14857 35.8286 7.71429 36.5486C7.95429 36.8743 7.95429 37.32 7.69714 37.6286L6.36 39.1714C6.06857 39.5143 6.08571 40.0286 6.39429 40.3371L7.69714 41.64C8.02286 41.9657 8.52 41.9829 8.86286 41.6743L10.4057 40.3371C10.7143 40.0629 11.16 40.0629 11.4857 40.32C12.2057 40.8686 12.9771 41.3829 13.7657 41.8286C14.1257 42.0343 14.28 42.4457 14.16 42.84L13.5086 44.7771C13.3714 45.2057 13.5771 45.6686 13.9886 45.84L15.6857 46.5429C16.0971 46.7143 16.5771 46.5429 16.7829 46.1314L17.6914 44.3143C17.88 43.9543 18.2743 43.7829 18.6686 43.8857C19.5429 44.1257 20.4343 44.2971 21.3429 44.4171C21.7543 44.4686 22.0629 44.7943 22.0971 45.1886L22.2343 47.2286C22.2686 47.6571 22.6286 48 23.0914 48H24.9257C25.3714 48 25.7486 47.6571 25.7829 47.2114L25.92 45.1714C25.9543 44.76 26.2629 44.4514 26.6743 44.4C27.5829 44.28 28.4914 44.1086 29.3657 43.8686C29.76 43.7657 30.1714 43.9371 30.3429 44.2971L31.2514 46.1143C31.4571 46.5086 31.9371 46.6971 32.3486 46.5257L34.0457 45.8229C34.4571 45.6514 34.68 45.1886 34.5257 44.76L33.8743 42.8229C33.7371 42.4286 33.9086 42.0171 34.2686 41.8114C35.0571 41.3486 35.8286 40.8514 36.5486 40.3029C36.8743 40.0629 37.32 40.0629 37.6286 40.32L39.1714 41.6571C39.5143 41.9486 40.0286 41.9314 40.3371 41.6229L41.64 40.32C41.9657 39.9943 41.9829 39.4971 41.6743 39.1543L40.3371 37.6114C40.0629 37.3029 40.0629 36.8571 40.32 36.5314C40.8686 35.8114 41.3829 35.04 41.8286 34.2514C42.0343 33.8914 42.4457 33.7371 42.84 33.8571L44.7771 34.5086C45.2057 34.6457 45.6686 34.44 45.84 34.0286L46.5429 32.3314C46.7143 31.92 46.5429 31.44 46.1314 31.2343L44.3143 30.3257C43.9543 30.1371 43.7829 29.7257 43.8857 29.3486C44.1257 28.4743 44.2971 27.5829 44.4171 26.6571C44.4686 26.2457 44.7943 25.9371 45.1886 25.9029L47.2286 25.7657C47.6571 25.7314 48 25.3714 48 24.9086Z" fill="#313333"/>
<path d="M24 38.7949C15.72 38.7949 9 32.0578 9 23.7949C9 15.5321 15.7371 8.79492 24 8.79492C32.2629 8.79492 39 15.5321 39 23.7949C39 32.0578 32.28 38.7949 24 38.7949ZM24 11.3663C17.1429 11.3663 11.5714 16.9378 11.5714 23.7949C11.5714 30.6521 17.1429 36.2235 24 36.2235C30.8571 36.2235 36.4286 30.6521 36.4286 23.7949C36.4286 16.9378 30.8571 11.3663 24 11.3663Z" fill="#A770EE"/>
<path d="M24 28.9371C26.8404 28.9371 29.1429 26.6345 29.1429 23.7942C29.1429 20.9539 26.8404 18.6514 24 18.6514C21.1597 18.6514 18.8572 20.9539 18.8572 23.7942C18.8572 26.6345 21.1597 28.9371 24 28.9371Z" fill="white"/>
</svg>
