<svg width="15" height="16" viewBox="0 0 15 16" fill="none" xmlns="http://www.w3.org/2000/svg">
<path fill-rule="evenodd" clip-rule="evenodd" d="M2.89699 0.219401C3.12737 -0.0685763 3.57085 -0.0685763 3.80123 0.219401L6.62917 3.79031C6.77891 3.98038 6.64645 4.25684 6.40454 4.25684H3.92218V15.7759H2.77028V4.25684H0.287915C0.0460139 4.25684 -0.0864555 3.98038 0.0632925 3.79031L2.89699 0.219401ZM11.2426 11.7437H13.725C13.9669 11.7437 14.0994 12.0201 13.9496 12.2102L11.1159 15.7811C10.8855 16.0691 10.4421 16.0691 10.2117 15.7811L7.37799 12.2102C7.22824 12.0201 7.36071 11.7437 7.60261 11.7437H10.0907V0.224609H11.2426V11.7437Z" fill="#8E9394"/>
</svg>
