<svg width="80" height="80" viewBox="0 0 80 80" fill="none" xmlns="http://www.w3.org/2000/svg">
<path fill-rule="evenodd" clip-rule="evenodd" d="M80 40.4938C80 17.9081 62.0919 0 39.5062 0C17.9081 0 0 17.9081 0 40.4938C0 62.0919 17.9081 80 39.5062 80C62.0919 80 80 62.0919 80 40.4938Z" fill="#59BF9C"/>
<path fill-rule="evenodd" clip-rule="evenodd" d="M20.1486 42.637C19.9834 42.466 19.9611 42.1755 20.106 41.9784L21.9072 39.5276C22.0488 39.3349 22.3162 39.2955 22.5048 39.44L33.2197 47.6524C33.4081 47.7968 33.7112 47.7886 33.8892 47.6402L59.9715 25.9116C60.1528 25.7605 60.4377 25.7741 60.6072 25.9415L62.3067 27.62C62.4765 27.7876 62.4781 28.0573 62.3074 28.2252L33.8666 56.2153C33.6972 56.3819 33.4242 56.3766 33.2608 56.2075L20.1486 42.637Z" fill="white"/>
</svg>
