<svg width="28" height="28" viewBox="0 0 28 28" fill="none" xmlns="http://www.w3.org/2000/svg">
<path opacity="0.08" d="M25.375 0H2.625C1.17525 0 0 1.17525 0 2.625V25.375C0 26.8247 1.17525 28 2.625 28H25.375C26.8247 28 28 26.8247 28 25.375V2.625C28 1.17525 26.8247 0 25.375 0Z" fill="white"/>
<path d="M4.71501 13.3122L9.1506 14.9677L10.8674 20.489C10.9773 20.8426 11.4097 20.9733 11.6967 20.7387L14.1692 18.7231C14.4284 18.5119 14.7975 18.5014 15.0684 18.698L19.5278 21.9356C19.8349 22.1588 20.2698 21.9906 20.3468 21.6196L23.6136 5.90572C23.6977 5.50044 23.2995 5.16235 22.9136 5.3116L4.70981 12.3341C4.26058 12.5073 4.2645 13.1433 4.71501 13.3122ZM10.5908 14.0864L19.2595 8.74727C19.4153 8.6516 19.5756 8.86226 19.4418 8.98636L12.2876 15.6366C12.0361 15.8707 11.8739 16.1839 11.828 16.524L11.5842 18.33C11.552 18.5711 11.2132 18.5951 11.1467 18.3617L10.2094 15.0683C10.1021 14.6927 10.2585 14.2915 10.5908 14.0864Z" fill="white"/>
</svg>
