<svg width="20" height="20" viewBox="0 0 20 20" fill="none" xmlns="http://www.w3.org/2000/svg">
<path d="M5.41863 5.35156H5.16785L4.69922 7.69531H5.88727L5.41863 5.35156Z" fill="#22B2D6"/>
<path d="M14.8975 10.0391C15.1505 10.7187 15.487 11.2689 15.8594 11.737C16.2318 11.2689 16.6074 10.7187 16.8604 10.0391H14.8975Z" fill="#22B2D6"/>
<path d="M18.2416 3.55469H10.965L12.4823 15.7296C12.5091 16.2276 12.373 16.6964 12.048 17.0635L9.47852 20H18.2416C19.2109 20 19.9995 19.2115 19.9995 18.2422V5.35156C19.9995 4.38227 19.2109 3.55469 18.2416 3.55469ZM18.2416 10.0391H18.0852C17.7518 11.1087 17.2231 11.9457 16.6736 12.6055C17.104 12.9991 17.5643 13.3219 18.0219 13.6834C18.2743 13.8854 18.3155 14.2539 18.1129 14.5068C17.9113 14.7594 17.5413 14.8003 17.2895 14.5978C16.7923 14.2054 16.3256 13.8768 15.8588 13.4486C15.3921 13.8768 14.9645 14.2054 14.4672 14.5978C14.2154 14.8003 13.8455 14.7594 13.6439 14.5068C13.4413 14.2539 13.4825 13.8854 13.7348 13.6834C14.1924 13.3219 14.6137 12.9991 15.0441 12.6055C14.4946 11.9457 14.0049 11.1087 13.6716 10.0391H13.5151C13.1912 10.0391 12.9292 9.77699 12.9292 9.45312C12.9292 9.12926 13.1912 8.86719 13.5151 8.86719H15.2729V8.28125C15.2729 7.95738 15.535 7.69531 15.8588 7.69531C16.1827 7.69531 16.4448 7.95738 16.4448 8.28125V8.86719H18.2416C18.5655 8.86719 18.8276 9.12926 18.8276 9.45312C18.8276 9.77699 18.5655 10.0391 18.2416 10.0391Z" fill="#22B2D6"/>
<path d="M9.53766 1.5398C9.42836 0.662031 8.6782 0 7.79359 0H1.75781C0.788516 0 0 0.788516 0 1.75781V14.7266C0 15.6959 0.788516 16.4844 1.75781 16.4844C5.26055 16.4844 7.78035 16.4844 10.9981 16.4844C11.169 16.289 11.3123 16.1666 11.3184 15.9116C11.3198 15.8477 9.54559 1.60324 9.53766 1.5398ZM7.18531 11.1995C6.87461 11.2634 6.55988 11.0617 6.49582 10.74L6.12133 8.86719H4.46465L4.09016 10.74C4.02723 11.057 3.72164 11.2653 3.40066 11.1995C3.08367 11.136 2.87766 10.8276 2.94117 10.51L4.11301 4.65063C4.16793 4.37711 4.40828 4.17969 4.6875 4.17969H5.89844C6.17766 4.17969 6.41801 4.37711 6.47293 4.65063L7.6448 10.51C7.70832 10.8276 7.50234 11.136 7.18531 11.1995Z" fill="#22B2D6"/>
<path d="M6.84668 17.6562L6.94723 18.4602C7.01426 18.9986 7.37199 19.5476 7.96043 19.8218C9.0709 18.5993 8.39906 19.3389 9.92758 17.6562H6.84668Z" fill="#22B2D6"/>
</svg>
