<svg width="28" height="28" viewBox="0 0 28 28" fill="none" xmlns="http://www.w3.org/2000/svg">
<path opacity="0.08" d="M25.375 0H2.625C1.17525 0 0 1.17525 0 2.625V25.375C0 26.8247 1.17525 28 2.625 28H25.375C26.8247 28 28 26.8247 28 25.375V2.625C28 1.17525 26.8247 0 25.375 0Z" fill="white"/>
<path fill-rule="evenodd" clip-rule="evenodd" d="M10.7537 21.1113C17.3577 21.1113 20.9691 15.64 20.9691 10.8957C20.9691 10.7403 20.966 10.5855 20.9589 10.4316C21.6599 9.92483 22.2692 9.29252 22.75 8.57257C22.1067 8.85831 21.4143 9.05095 20.6882 9.13782C21.4294 8.69339 21.9986 7.99003 22.2669 7.15171C21.573 7.56296 20.805 7.86214 19.9872 8.02314C19.332 7.32531 18.3989 6.88879 17.3664 6.88879C15.3834 6.88879 13.7754 8.49676 13.7754 10.479C13.7754 10.7608 13.807 11.0347 13.8686 11.2976C10.8847 11.1476 8.23865 9.71882 6.46807 7.54637C6.15944 8.07683 5.98178 8.69339 5.98178 9.35097C5.98178 10.5966 6.6157 11.6963 7.57953 12.3396C6.99062 12.3214 6.43727 12.1596 5.95336 11.8904C5.95259 11.9053 5.95259 11.9204 5.95259 11.9361C5.95259 13.6752 7.19033 15.1269 8.83309 15.4561C8.53153 15.5381 8.21422 15.5824 7.88662 15.5824C7.65527 15.5824 7.43029 15.5595 7.21168 15.5176C7.66871 16.9441 8.99409 17.9821 10.5658 18.0114C9.33667 18.9744 7.78869 19.5483 6.10652 19.5483C5.81679 19.5483 5.53105 19.5317 5.25 19.4985C6.83907 20.5169 8.72571 21.1113 10.7537 21.1113Z" fill="white"/>
</svg>
