<svg width="120" height="120" viewBox="0 0 120 120" fill="none" xmlns="http://www.w3.org/2000/svg">
<path d="M60 0C26.88 0 0 26.85 0 60C0 79.62 9.42 97.02 24 108C34.02 115.53 46.5 120 60 120C73.53 120 85.98 115.53 96 108.03C110.58 97.05 120 79.62 120 60C120 26.85 93.15 0 60 0ZM60 25.5C69.87 25.5 75 32.22 75 40.5C75 48.78 68.13 55.5 60 55.5C51.87 55.5 45 48.78 45 40.5C45 32.22 50.13 25.5 60 25.5ZM90 90.03C90 91.68 88.65 93.03 87 93.03L33 93C31.35 93 30 91.65 30 90V79.5C30 71.22 36.72 64.5 45 64.5H75C83.28 64.5 90 71.22 90 79.5V90.03Z" fill="#D8DDDF"/>
</svg>
