<svg width="28" height="28" viewBox="0 0 28 28" fill="none" xmlns="http://www.w3.org/2000/svg">
<path opacity="0.08" d="M25.375 0H2.625C1.17525 0 0 1.17525 0 2.625V25.375C0 26.8247 1.17525 28 2.625 28H25.375C26.8247 28 28 26.8247 28 25.375V2.625C28 1.17525 26.8247 0 25.375 0Z" fill="white"/>
<path d="M11.5193 5C15.1887 5 18.2403 7.22095 18.902 10.1568C18.536 10.1111 18.1651 10.0794 17.7853 10.0794C13.6385 10.0794 10.2661 12.9276 10.2661 16.4286C10.2661 16.8362 10.3162 17.2337 10.4039 17.621C9.76102 17.541 9.15948 17.3695 8.58049 17.1613L5.87982 18.3333L6.87111 16.3244C5.12539 15.1638 4 13.3708 4 11.3492C4 7.84318 7.36613 5 11.5193 5ZM9.01285 9.76191C9.53168 9.76191 9.95276 9.33524 9.95276 8.80952C9.95276 8.28381 9.53168 7.85714 9.01285 7.85714C8.49402 7.85714 8.07294 8.28381 8.07294 8.80952C8.07294 9.33524 8.49402 9.76191 9.01285 9.76191ZM14.0257 9.76191C14.5445 9.76191 14.9656 9.33524 14.9656 8.80952C14.9656 8.28381 14.5445 7.85714 14.0257 7.85714C13.5069 7.85714 13.0858 8.28381 13.0858 8.80952C13.0858 9.33524 13.5069 9.76191 14.0257 9.76191ZM24 16.329C24 17.9451 23.0413 19.368 21.5755 20.2929L22.7451 22.6471L19.3631 21.1876C18.8373 21.3026 18.2952 21.3834 17.7255 21.3834C14.2607 21.3834 11.451 19.1203 11.451 16.329C11.451 13.5376 14.2607 11.2745 17.7255 11.2745C21.1903 11.2745 24 13.5376 24 16.329ZM15.8431 16.0131C16.3627 16.0131 16.7843 15.5885 16.7843 15.0654C16.7843 14.5422 16.3627 14.1176 15.8431 14.1176C15.3236 14.1176 14.902 14.5422 14.902 15.0654C14.902 15.5885 15.3236 16.0131 15.8431 16.0131ZM19.6078 16.0131C20.1274 16.0131 20.549 15.5885 20.549 15.0654C20.549 14.5422 20.1274 14.1176 19.6078 14.1176C19.0883 14.1176 18.6667 14.5422 18.6667 15.0654C18.6667 15.5885 19.0883 16.0131 19.6078 16.0131Z" fill="white"/>
</svg>
