<svg width="28" height="28" viewBox="0 0 28 28" fill="none" xmlns="http://www.w3.org/2000/svg">
<path opacity="0.08" d="M25.375 0H2.625C1.17525 0 0 1.17525 0 2.625V25.375C0 26.8247 1.17525 28 2.625 28H25.375C26.8247 28 28 26.8247 28 25.375V2.625C28 1.17525 26.8247 0 25.375 0Z" fill="white"/>
<path d="M20.1663 14.3191C20.5086 14.5348 20.8063 14.8378 21.0591 15.2287C21.3123 15.6191 21.4385 16.0526 21.4385 16.5286C21.4385 17.0342 21.3007 17.5531 21.0255 18.0848C20.7502 18.6169 20.3449 19.1262 19.8092 19.6134C19.2738 20.1007 18.6471 20.5377 17.9292 20.9243C17.2116 21.3112 16.371 21.6197 15.4079 21.8504C14.4447 22.081 13.4388 22.1961 12.39 22.1961C11.3413 22.1961 10.3185 22.0715 9.32178 21.8225C8.32513 21.5733 7.43063 21.2272 6.6386 20.7848C5.84636 20.3423 5.20869 19.7808 4.7251 19.1001C4.24174 18.4194 4 17.6775 4 16.8742C4 16.0187 4.25835 15.1078 4.77531 14.1407C5.29224 13.1737 6.02679 12.2142 6.97881 11.2622C8.23596 10.0051 9.50596 9.12743 10.7888 8.62895C12.0719 8.13059 12.9886 8.15662 13.539 8.70699C14.0225 9.18312 14.0968 9.96031 13.7622 11.0389C13.7325 11.143 13.7287 11.2174 13.751 11.262C13.7734 11.3067 13.8106 11.3327 13.8625 11.3401C13.9145 11.3475 13.9685 11.3457 14.0244 11.3345C14.0801 11.3232 14.1304 11.3103 14.1747 11.2955L14.2419 11.2731C15.2756 10.8343 16.1905 10.6148 16.9863 10.6148C17.7824 10.6148 18.3511 10.8418 18.6935 11.2955C19.028 11.764 19.028 12.426 18.6935 13.2814C18.6787 13.378 18.6621 13.4524 18.6434 13.5044C18.6245 13.5564 18.6414 13.603 18.6935 13.644C18.7454 13.6849 18.7902 13.7127 18.8274 13.7276C18.8646 13.7426 18.9279 13.7648 19.0173 13.7947C19.4412 13.9285 19.8245 14.1033 20.1663 14.3191ZM16.5238 19.4352C17.6135 18.5536 18.106 17.57 18.002 16.4839C17.9351 15.7699 17.6043 15.1376 17.0092 14.587C16.4141 14.0366 15.6384 13.6313 14.6828 13.371C13.7272 13.1106 12.7064 13.0324 11.6204 13.1367C9.96176 13.3077 8.58754 13.8339 7.49789 14.7155C6.40823 15.5969 5.91538 16.5805 6.0196 17.6664C6.08654 18.3805 6.41753 19.0128 7.01257 19.5634C7.60754 20.1138 8.38305 20.519 9.33878 20.7796C10.2945 21.0399 11.3154 21.118 12.4014 21.0138C14.06 20.8428 15.4342 20.3166 16.5238 19.4352ZM12.7249 14.8104C13.5505 15.0261 14.1398 15.4705 14.4933 16.1434C14.8466 16.8166 14.8559 17.525 14.5214 18.269C14.1864 19.0275 13.5989 19.5854 12.7584 19.9425C11.918 20.2997 11.0848 20.3442 10.2592 20.0766C9.46332 19.8235 8.91486 19.3531 8.61357 18.6651C8.31227 17.9771 8.33654 17.2796 8.68614 16.5733C9.03577 15.8814 9.59908 15.3646 10.3764 15.0225C11.1537 14.6804 11.9366 14.6095 12.7249 14.8104ZM11.5311 18.4253C11.6873 18.1723 11.7281 17.9158 11.6538 17.6555C11.5794 17.3953 11.412 17.2091 11.1516 17.0977C10.8987 16.9936 10.6273 16.9899 10.3371 17.0866C10.047 17.1832 9.82382 17.3541 9.6677 17.5998C9.50408 17.8528 9.45574 18.1074 9.52272 18.3638C9.58966 18.6205 9.74957 18.8083 10.0024 18.9273C10.2552 19.0464 10.5324 19.0557 10.8336 18.9552C11.135 18.8548 11.3674 18.6781 11.5311 18.4253ZM12.5798 17.075C12.6393 16.9786 12.6523 16.8798 12.6188 16.7796C12.5852 16.6791 12.5202 16.6101 12.4235 16.5731C12.3193 16.5359 12.2133 16.5377 12.1056 16.5786C11.9978 16.6197 11.9178 16.6884 11.8658 16.7852C11.7394 17.0158 11.7877 17.1829 12.0108 17.2872C12.1149 17.3243 12.2228 17.3226 12.3344 17.2816C12.4458 17.2407 12.5278 17.1718 12.5798 17.075ZM19.9432 12.1827C19.8615 12.0228 19.8464 11.8573 19.8989 11.6862C20.0476 11.2176 19.9585 10.8047 19.6311 10.4478C19.3036 10.0908 18.9061 9.96062 18.4373 10.0573C18.2586 10.0944 18.0914 10.0647 17.935 9.96801C17.779 9.87133 17.6862 9.73373 17.6565 9.55518C17.6191 9.37671 17.6488 9.21118 17.7454 9.05877C17.8421 8.90633 17.9797 8.81145 18.1584 8.77421C18.6046 8.67753 19.0471 8.69793 19.486 8.83552C19.9247 8.97319 20.3006 9.21681 20.613 9.56644C20.9251 9.91603 21.1278 10.3196 21.2207 10.777C21.314 11.2343 21.2896 11.6715 21.1484 12.0879C21.0889 12.259 20.9791 12.3855 20.8192 12.4672C20.6592 12.5491 20.494 12.5639 20.3228 12.5119C20.1516 12.4523 20.0254 12.3427 19.9432 12.1827ZM23.8875 10.2301C24.0771 11.1711 24.027 12.0693 23.737 12.9247C23.67 13.1255 23.5435 13.2743 23.3575 13.3709C23.1716 13.4676 22.9782 13.4824 22.7773 13.4156C22.5765 13.3486 22.4278 13.2222 22.3312 13.0363C22.2344 12.8503 22.2159 12.6569 22.2753 12.456C22.4837 11.8461 22.5208 11.2064 22.3868 10.5371C22.2529 9.86753 21.9551 9.28003 21.4941 8.77421C21.0329 8.26095 20.4824 7.90589 19.8427 7.70878C19.2031 7.51175 18.5596 7.48009 17.9124 7.6139C17.7043 7.65856 17.5108 7.6232 17.3325 7.50792C17.1537 7.39264 17.0423 7.23089 16.9978 7.02261C16.953 6.81432 16.9883 6.62288 17.1036 6.44796C17.2189 6.27309 17.3807 6.16343 17.589 6.11877C18.5042 5.92541 19.4114 5.96812 20.3113 6.2471C21.2116 6.5262 21.9851 7.02644 22.6323 7.74782C23.2794 8.46182 23.6977 9.28933 23.8875 10.2301Z" fill="white"/>
</svg>
